<svg width="13" height="13" viewBox="0 0 30 30" fill="none" xmlns="http://www.w3.org/2000/svg">
<path d="M23.6853 15C23.6853 19.7961 19.7973 23.6842 15.0011 23.6842C10.2049 23.6842 6.31689 19.7961 6.31689 15C6.31689 10.2038 10.2049 6.31576 15.0011 6.31576C19.7973 6.31576 23.6853 10.2038 23.6853 15Z" fill="#2B2B2E"/>
<path fill-rule="evenodd" clip-rule="evenodd" d="M15 28.8152C22.6299 28.8152 28.8152 22.6299 28.8152 15C28.8152 7.37005 22.6299 1.18476 15 1.18476C7.37005 1.18476 1.18476 7.37005 1.18476 15C1.18476 22.6299 7.37005 28.8152 15 28.8152ZM15 30C23.2843 30 30 23.2843 30 15C30 6.71573 23.2843 0 15 0C6.71573 0 0 6.71573 0 15C0 23.2843 6.71573 30 15 30Z" fill="#2B2B2E"/>
</svg>
