<svg width="1622" height="811" viewBox="0 0 1622 811" fill="none" xmlns="http://www.w3.org/2000/svg">
<path d="M0 0L811 405.5L1622 0L811 811L0 0Z" fill="url(#paint0_linear_1901_330)"/>
<path d="M0 0L811 405.5L1622 0L811 811L0 0Z" fill="url(#paint1_linear_1901_330)"/>
<path d="M0 0L811 405.5L1622 0L811 811L0 0Z" fill="url(#paint2_linear_1901_330)"/>
<path d="M0 0L811 405.5L1622 0L811 811L0 0Z" fill="url(#paint3_radial_1901_330)"/>
<path d="M0 0L811 405.5L1622 0L811 811L0 0Z" fill="url(#paint4_radial_1901_330)"/>
<path d="M0 0L811 405.5L1622 0L811 811L0 0Z" fill="url(#paint5_radial_1901_330)" fill-opacity="0.16"/>
<defs>
<linearGradient id="paint0_linear_1901_330" x1="-10.5325" y1="582.256" x2="1611.47" y2="582.256" gradientUnits="userSpaceOnUse">
<stop stop-color="#83A6CD"/>
<stop offset="0.16" stop-color="#9BB4D7"/>
<stop offset="0.355" stop-color="#D0D4EC"/>
<stop offset="0.499587" stop-color="#E6E1F5"/>
<stop offset="0.665" stop-color="#EBC6D4"/>
<stop offset="0.8" stop-color="#F29DA1"/>
<stop offset="1" stop-color="#FA726C"/>
</linearGradient>
<linearGradient id="paint1_linear_1901_330" x1="1487.37" y1="134.626" x2="867.366" y2="755.447" gradientUnits="userSpaceOnUse">
<stop stop-color="#E81B23"/>
<stop offset="0.473376" stop-color="#FF808C"/>
<stop offset="1" stop-color="#FF808C" stop-opacity="0"/>
</linearGradient>
<linearGradient id="paint2_linear_1901_330" x1="0" y1="0" x2="775.41" y2="778.46" gradientUnits="userSpaceOnUse">
<stop stop-color="#0044C9"/>
<stop offset="0.529297" stop-color="#73A6E1"/>
<stop offset="1" stop-color="#73A6E1" stop-opacity="0"/>
</linearGradient>
<radialGradient id="paint3_radial_1901_330" cx="0" cy="0" r="1" gradientUnits="userSpaceOnUse" gradientTransform="translate(812.504 406) rotate(90) scale(317.412 424.096)">
<stop stop-color="#AF62D7"/>
<stop offset="1" stop-color="#BC8DD0" stop-opacity="0"/>
</radialGradient>
<radialGradient id="paint4_radial_1901_330" cx="0" cy="0" r="1" gradientUnits="userSpaceOnUse" gradientTransform="translate(811 811.004) rotate(-90) scale(339.504 1370.62)">
<stop stop-color="#E8E8E8"/>
<stop offset="0.81051" stop-color="#CBCBCB" stop-opacity="0"/>
</radialGradient>
<radialGradient id="paint5_radial_1901_330" cx="0" cy="0" r="1" gradientUnits="userSpaceOnUse" gradientTransform="translate(811 405.5) rotate(90) scale(405.5 1012.71)">
<stop stop-color="#AF62D7"/>
<stop offset="1" stop-color="#BC8DD0" stop-opacity="0"/>
</radialGradient>
</defs>
</svg>
