<svg width="1744" height="931" viewBox="0 0 1744 931" fill="none" xmlns="http://www.w3.org/2000/svg">
<path d="M116.358 6.33009H119.195V23.7253H129.948V26.1941H116.358V6.33009Z" fill="#2B2B2E"/>
<path d="M146.203 18.7593C146.203 18.9674 146.184 19.2417 146.146 19.5822H133.946C134.116 20.9065 134.693 21.9754 135.677 22.7888C136.679 23.5834 137.918 23.9807 139.394 23.9807C141.191 23.9807 142.638 23.3753 143.735 22.1645L145.238 23.9239C144.557 24.7185 143.706 25.3239 142.685 25.7401C141.682 26.1563 140.557 26.3644 139.309 26.3644C137.72 26.3644 136.311 26.0428 135.081 25.3995C133.852 24.7374 132.896 23.8199 132.215 22.647C131.553 21.474 131.222 20.1498 131.222 18.6742C131.222 17.2175 131.544 15.9027 132.187 14.7297C132.849 13.5568 133.748 12.6487 134.882 12.0055C136.036 11.3434 137.332 11.0123 138.769 11.0123C140.207 11.0123 141.484 11.3434 142.6 12.0055C143.735 12.6487 144.614 13.5568 145.238 14.7297C145.881 15.9027 146.203 17.2458 146.203 18.7593ZM138.769 13.3109C137.464 13.3109 136.367 13.7082 135.478 14.5027C134.608 15.2973 134.098 16.3378 133.946 17.6242H143.593C143.441 16.3567 142.921 15.3257 142.032 14.5311C141.162 13.7176 140.075 13.3109 138.769 13.3109Z" fill="#2B2B2E"/>
<path d="M155.489 7.20979C153.863 7.20979 153.049 8.08948 153.049 9.84886V11.1542H157.419V13.396H153.106V26.1941H150.382V13.396H147.829V11.1542H150.382V9.82049C150.382 8.32596 150.817 7.14357 151.687 6.27334C152.557 5.40311 153.777 4.96799 155.347 4.96799C155.953 4.96799 156.52 5.04366 157.05 5.19501C157.579 5.34635 158.033 5.56391 158.412 5.84768L157.589 7.91922C156.965 7.44626 156.265 7.20979 155.489 7.20979Z" fill="#2B2B2E"/>
<path d="M168.442 25.3144C168.045 25.6549 167.553 25.9198 166.967 26.109C166.381 26.2792 165.775 26.3644 165.151 26.3644C163.638 26.3644 162.465 25.9576 161.633 25.1442C160.801 24.3307 160.385 23.1672 160.385 21.6538V13.396H157.831V11.1542H160.385V7.86246H163.108V11.1542H167.421V13.396H163.108V21.5403C163.108 22.3537 163.307 22.978 163.704 23.4131C164.12 23.8483 164.707 24.0658 165.463 24.0658C166.295 24.0658 167.005 23.8293 167.591 23.3564L168.442 25.3144Z" fill="#2B2B2E"/>
<path d="M178.39 17.2269H186.022V19.5822H178.39V17.2269Z" fill="#2B2B2E"/>
<path d="M198.233 6.33009H201.07V23.7253H211.823V26.1941H198.233V6.33009Z" fill="#2B2B2E"/>
<path d="M214.681 11.1542H217.405V26.1941H214.681V11.1542ZM216.043 8.25974C215.514 8.25974 215.069 8.08948 214.71 7.74895C214.369 7.40843 214.199 6.99223 214.199 6.50036C214.199 6.00849 214.369 5.59229 214.71 5.25176C215.069 4.89232 215.514 4.7126 216.043 4.7126C216.573 4.7126 217.008 4.88286 217.348 5.22339C217.708 5.54499 217.887 5.95173 217.887 6.4436C217.887 6.95439 217.708 7.38951 217.348 7.74895C217.008 8.08948 216.573 8.25974 216.043 8.25974Z" fill="#2B2B2E"/>
<path d="M230.578 11.0123C232.035 11.0123 233.34 11.3339 234.493 11.9771C235.647 12.6204 236.546 13.519 237.189 14.673C237.851 15.827 238.182 17.1607 238.182 18.6742C238.182 20.1876 237.851 21.5308 237.189 22.7037C236.546 23.8577 235.647 24.7563 234.493 25.3995C233.34 26.0428 232.035 26.3644 230.578 26.3644C229.462 26.3644 228.441 26.1468 227.514 25.7117C226.587 25.2766 225.821 24.6428 225.216 23.8104V26.1941H222.606V5.13825H225.329V13.4244C225.935 12.6298 226.691 12.0339 227.599 11.6366C228.507 11.2204 229.5 11.0123 230.578 11.0123ZM230.351 23.9807C231.316 23.9807 232.176 23.7631 232.933 23.328C233.708 22.874 234.314 22.2497 234.749 21.4551C235.203 20.6416 235.43 19.7147 235.43 18.6742C235.43 17.6337 235.203 16.7161 234.749 15.9216C234.314 15.1081 233.708 14.4838 232.933 14.0487C232.176 13.6136 231.316 13.396 230.351 13.396C229.405 13.396 228.545 13.6136 227.769 14.0487C226.994 14.4838 226.388 15.1081 225.953 15.9216C225.518 16.7161 225.301 17.6337 225.301 18.6742C225.301 19.7147 225.518 20.6416 225.953 21.4551C226.388 22.2497 226.994 22.874 227.769 23.328C228.545 23.7631 229.405 23.9807 230.351 23.9807Z" fill="#2B2B2E"/>
<path d="M255.535 18.7593C255.535 18.9674 255.516 19.2417 255.479 19.5822H243.279C243.449 20.9065 244.026 21.9754 245.009 22.7888C246.012 23.5834 247.251 23.9807 248.726 23.9807C250.523 23.9807 251.97 23.3753 253.067 22.1645L254.571 23.9239C253.89 24.7185 253.039 25.3239 252.017 25.7401C251.015 26.1563 249.889 26.3644 248.641 26.3644C247.052 26.3644 245.643 26.0428 244.413 25.3995C243.184 24.7374 242.229 23.8199 241.548 22.647C240.886 21.474 240.555 20.1498 240.555 18.6742C240.555 17.2175 240.876 15.9027 241.52 14.7297C242.182 13.5568 243.08 12.6487 244.215 12.0055C245.369 11.3434 246.664 11.0123 248.102 11.0123C249.539 11.0123 250.816 11.3434 251.932 12.0055C253.067 12.6487 253.947 13.5568 254.571 14.7297C255.214 15.9027 255.535 17.2458 255.535 18.7593ZM248.102 13.3109C246.797 13.3109 245.7 13.7082 244.811 14.5027C243.941 15.2973 243.43 16.3378 243.279 17.6242H252.925C252.774 16.3567 252.254 15.3257 251.365 14.5311C250.495 13.7176 249.407 13.3109 248.102 13.3109Z" fill="#2B2B2E"/>
<path d="M261.928 13.6798C262.401 12.8095 263.1 12.1474 264.027 11.6934C264.954 11.2393 266.08 11.0123 267.404 11.0123V13.6514C267.252 13.6325 267.044 13.623 266.779 13.623C265.304 13.623 264.141 14.0676 263.29 14.9568C262.457 15.827 262.041 17.0756 262.041 18.7025V26.1941H259.318V11.1542H261.928V13.6798Z" fill="#2B2B2E"/>
<path d="M276.209 11.0123C278.289 11.0123 279.878 11.5231 280.975 12.5447C282.091 13.5663 282.649 15.0892 282.649 17.1134V26.1941H280.067V24.2077C279.613 24.9077 278.961 25.4468 278.11 25.8252C277.277 26.1846 276.284 26.3644 275.131 26.3644C273.447 26.3644 272.095 25.9576 271.073 25.1442C270.071 24.3307 269.57 23.2618 269.57 21.9375C269.57 20.6133 270.052 19.5539 271.017 18.7593C271.981 17.9458 273.513 17.5391 275.613 17.5391H279.925V16.9999C279.925 15.827 279.585 14.9284 278.904 14.3041C278.223 13.6798 277.221 13.3676 275.897 13.3676C275.008 13.3676 274.138 13.519 273.286 13.8217C272.435 14.1054 271.716 14.4933 271.13 14.9851L269.995 12.942C270.771 12.3177 271.697 11.8447 272.776 11.5231C273.854 11.1826 274.998 11.0123 276.209 11.0123ZM275.584 24.2645C276.625 24.2645 277.523 24.0374 278.28 23.5834C279.036 23.1105 279.585 22.4483 279.925 21.597V19.4971H275.726C273.419 19.4971 272.265 20.2727 272.265 21.824C272.265 22.5807 272.558 23.1767 273.144 23.6118C273.731 24.0469 274.544 24.2645 275.584 24.2645Z" fill="#2B2B2E"/>
<path d="M287.69 5.13825H290.413V26.1941H287.69V5.13825Z" fill="#2B2B2E"/>
<path d="M301.6 2.30054H304.069L294.706 29.0318H292.238L301.6 2.30054Z" fill="#2B2B2E"/>
<path d="M313.731 6.33009C316.304 6.33009 318.328 6.94493 319.803 8.17461C321.278 9.40429 322.016 11.0975 322.016 13.2541C322.016 15.4108 321.278 17.104 319.803 18.3336C318.328 19.5633 316.304 20.1781 313.731 20.1781H308.823V26.1941H305.986V6.33009H313.731ZM313.646 17.7093C315.443 17.7093 316.814 17.331 317.76 16.5742C318.706 15.7986 319.179 14.6919 319.179 13.2541C319.179 11.8163 318.706 10.7191 317.76 9.96237C316.814 9.18673 315.443 8.79891 313.646 8.79891H308.823V17.7093H313.646Z" fill="#2B2B2E"/>
<path d="M328.148 13.6798C328.621 12.8095 329.321 12.1474 330.247 11.6934C331.174 11.2393 332.3 11.0123 333.624 11.0123V13.6514C333.472 13.6325 333.264 13.623 332.999 13.623C331.524 13.623 330.361 14.0676 329.51 14.9568C328.677 15.827 328.261 17.0756 328.261 18.7025V26.1941H325.538V11.1542H328.148V13.6798Z" fill="#2B2B2E"/>
<path d="M343.283 26.3644C341.788 26.3644 340.445 26.0333 339.254 25.3712C338.062 24.709 337.126 23.801 336.445 22.647C335.783 21.474 335.452 20.1498 335.452 18.6742C335.452 17.1985 335.783 15.8837 336.445 14.7297C337.126 13.5568 338.062 12.6487 339.254 12.0055C340.445 11.3434 341.788 11.0123 343.283 11.0123C344.777 11.0123 346.11 11.3434 347.283 12.0055C348.475 12.6487 349.402 13.5568 350.064 14.7297C350.744 15.8837 351.085 17.1985 351.085 18.6742C351.085 20.1498 350.744 21.474 350.064 22.647C349.402 23.801 348.475 24.709 347.283 25.3712C346.11 26.0333 344.777 26.3644 343.283 26.3644ZM343.283 23.9807C344.247 23.9807 345.108 23.7631 345.864 23.328C346.64 22.874 347.245 22.2497 347.68 21.4551C348.115 20.6416 348.333 19.7147 348.333 18.6742C348.333 17.6337 348.115 16.7161 347.68 15.9216C347.245 15.1081 346.64 14.4838 345.864 14.0487C345.108 13.6136 344.247 13.396 343.283 13.396C342.318 13.396 341.448 13.6136 340.672 14.0487C339.916 14.4838 339.31 15.1081 338.857 15.9216C338.421 16.7161 338.204 17.6337 338.204 18.6742C338.204 19.7147 338.421 20.6416 338.857 21.4551C339.31 22.2497 339.916 22.874 340.672 23.328C341.448 23.7631 342.318 23.9807 343.283 23.9807Z" fill="#2B2B2E"/>
<path d="M369.236 11.1542V24.151C369.236 26.7806 368.584 28.7197 367.279 29.9683C365.974 31.2358 364.025 31.8695 361.434 31.8695C360.015 31.8695 358.663 31.6709 357.377 31.2736C356.091 30.8953 355.05 30.3466 354.256 29.6277L355.561 27.5278C356.261 28.1332 357.122 28.6062 358.143 28.9467C359.183 29.3061 360.252 29.4859 361.349 29.4859C363.108 29.4859 364.404 29.0697 365.236 28.2373C366.087 27.4049 366.513 26.1374 366.513 24.4347V23.2429C365.87 24.0185 365.075 24.605 364.129 25.0023C363.203 25.3806 362.191 25.5698 361.094 25.5698C359.656 25.5698 358.351 25.2671 357.178 24.6617C356.024 24.0374 355.117 23.1767 354.455 22.0794C353.793 20.9633 353.462 19.6957 353.462 18.2769C353.462 16.858 353.793 15.6 354.455 14.5027C355.117 13.3865 356.024 12.5258 357.178 11.9204C358.351 11.315 359.656 11.0123 361.094 11.0123C362.229 11.0123 363.278 11.2204 364.243 11.6366C365.227 12.0528 366.03 12.6677 366.655 13.4811V11.1542H369.236ZM361.406 23.1861C362.389 23.1861 363.269 22.978 364.044 22.5618C364.839 22.1456 365.453 21.5686 365.889 20.8308C366.342 20.0741 366.569 19.2228 366.569 18.2769C366.569 16.8202 366.087 15.6473 365.122 14.7581C364.158 13.85 362.919 13.396 361.406 13.396C359.874 13.396 358.625 13.85 357.661 14.7581C356.696 15.6473 356.214 16.8202 356.214 18.2769C356.214 19.2228 356.431 20.0741 356.866 20.8308C357.32 21.5686 357.935 22.1456 358.71 22.5618C359.505 22.978 360.403 23.1861 361.406 23.1861Z" fill="#2B2B2E"/>
<path d="M377.051 13.6798C377.524 12.8095 378.224 12.1474 379.15 11.6934C380.077 11.2393 381.203 11.0123 382.527 11.0123V13.6514C382.375 13.6325 382.167 13.623 381.903 13.623C380.427 13.623 379.264 14.0676 378.413 14.9568C377.581 15.827 377.164 17.0756 377.164 18.7025V26.1941H374.441V11.1542H377.051V13.6798Z" fill="#2B2B2E"/>
<path d="M399.335 18.7593C399.335 18.9674 399.317 19.2417 399.279 19.5822H387.079C387.249 20.9065 387.826 21.9754 388.809 22.7888C389.812 23.5834 391.051 23.9807 392.526 23.9807C394.323 23.9807 395.77 23.3753 396.867 22.1645L398.371 23.9239C397.69 24.7185 396.839 25.3239 395.817 25.7401C394.815 26.1563 393.689 26.3644 392.441 26.3644C390.852 26.3644 389.443 26.0428 388.214 25.3995C386.984 24.7374 386.029 23.8199 385.348 22.647C384.686 21.474 384.355 20.1498 384.355 18.6742C384.355 17.2175 384.677 15.9027 385.32 14.7297C385.982 13.5568 386.88 12.6487 388.015 12.0055C389.169 11.3434 390.464 11.0123 391.902 11.0123C393.34 11.0123 394.616 11.3434 395.732 12.0055C396.867 12.6487 397.747 13.5568 398.371 14.7297C399.014 15.9027 399.335 17.2458 399.335 18.7593ZM391.902 13.3109C390.597 13.3109 389.5 13.7082 388.611 14.5027C387.741 15.2973 387.23 16.3378 387.079 17.6242H396.725C396.574 16.3567 396.054 15.3257 395.165 14.5311C394.295 13.7176 393.207 13.3109 391.902 13.3109Z" fill="#2B2B2E"/>
<path d="M407.43 26.3644C406.201 26.3644 405.019 26.2036 403.884 25.882C402.749 25.5414 401.86 25.1158 401.217 24.605L402.352 22.4483C403.014 22.9213 403.817 23.2996 404.763 23.5834C405.709 23.8672 406.664 24.0091 407.629 24.0091C410.012 24.0091 411.204 23.328 411.204 21.9659C411.204 21.5119 411.043 21.1524 410.721 20.8876C410.4 20.6227 409.993 20.4335 409.501 20.32C409.028 20.1876 408.348 20.0457 407.459 19.8944C406.248 19.7052 405.255 19.4876 404.479 19.2417C403.723 18.9958 403.07 18.5796 402.522 17.9931C401.973 17.4066 401.699 16.5837 401.699 15.5243C401.699 14.1622 402.266 13.0744 403.401 12.2609C404.536 11.4285 406.059 11.0123 407.969 11.0123C408.972 11.0123 409.974 11.1353 410.977 11.3812C411.979 11.6272 412.802 11.9582 413.445 12.3744L412.282 14.5311C411.052 13.7365 409.605 13.3393 407.941 13.3393C406.787 13.3393 405.908 13.5284 405.302 13.9068C404.697 14.2852 404.394 14.7865 404.394 15.4108C404.394 15.9027 404.565 16.2905 404.905 16.5742C405.246 16.858 405.662 17.0661 406.153 17.1985C406.664 17.331 407.373 17.4823 408.281 17.6526C409.492 17.8607 410.466 18.0877 411.204 18.3336C411.96 18.5607 412.603 18.9579 413.133 19.5255C413.663 20.093 413.927 20.8876 413.927 21.9092C413.927 23.2713 413.341 24.3591 412.168 25.1725C411.015 25.9671 409.435 26.3644 407.43 26.3644Z" fill="#2B2B2E"/>
<path d="M421.644 26.3644C420.415 26.3644 419.232 26.2036 418.097 25.882C416.963 25.5414 416.074 25.1158 415.43 24.605L416.565 22.4483C417.227 22.9213 418.031 23.2996 418.977 23.5834C419.923 23.8672 420.878 24.0091 421.843 24.0091C424.226 24.0091 425.417 23.328 425.417 21.9659C425.417 21.5119 425.257 21.1524 424.935 20.8876C424.614 20.6227 424.207 20.4335 423.715 20.32C423.242 20.1876 422.561 20.0457 421.672 19.8944C420.462 19.7052 419.469 19.4876 418.693 19.2417C417.937 18.9958 417.284 18.5796 416.736 17.9931C416.187 17.4066 415.913 16.5837 415.913 15.5243C415.913 14.1622 416.48 13.0744 417.615 12.2609C418.75 11.4285 420.273 11.0123 422.183 11.0123C423.186 11.0123 424.188 11.1353 425.19 11.3812C426.193 11.6272 427.016 11.9582 427.659 12.3744L426.496 14.5311C425.266 13.7365 423.819 13.3393 422.155 13.3393C421.001 13.3393 420.121 13.5284 419.516 13.9068C418.911 14.2852 418.608 14.7865 418.608 15.4108C418.608 15.9027 418.778 16.2905 419.119 16.5742C419.459 16.858 419.875 17.0661 420.367 17.1985C420.878 17.331 421.587 17.4823 422.495 17.6526C423.706 17.8607 424.68 18.0877 425.417 18.3336C426.174 18.5607 426.817 18.9579 427.347 19.5255C427.876 20.093 428.141 20.8876 428.141 21.9092C428.141 23.2713 427.555 24.3591 426.382 25.1725C425.228 25.9671 423.649 26.3644 421.644 26.3644Z" fill="#2B2B2E"/>
<path d="M431.545 11.1542H434.269V26.1941H431.545V11.1542ZM432.907 8.25974C432.377 8.25974 431.933 8.08948 431.574 7.74895C431.233 7.40843 431.063 6.99223 431.063 6.50036C431.063 6.00849 431.233 5.59229 431.574 5.25176C431.933 4.89232 432.377 4.7126 432.907 4.7126C433.437 4.7126 433.872 4.88286 434.212 5.22339C434.572 5.54499 434.751 5.95173 434.751 6.4436C434.751 6.95439 434.572 7.38951 434.212 7.74895C433.872 8.08948 433.437 8.25974 432.907 8.25974Z" fill="#2B2B2E"/>
<path d="M452.776 11.1542L446.194 26.1941H443.413L436.831 11.1542H439.668L444.832 23.2145L450.109 11.1542H452.776Z" fill="#2B2B2E"/>
<path d="M468.493 18.7593C468.493 18.9674 468.474 19.2417 468.436 19.5822H456.236C456.406 20.9065 456.983 21.9754 457.966 22.7888C458.969 23.5834 460.208 23.9807 461.683 23.9807C463.48 23.9807 464.927 23.3753 466.024 22.1645L467.528 23.9239C466.847 24.7185 465.996 25.3239 464.974 25.7401C463.972 26.1563 462.846 26.3644 461.598 26.3644C460.009 26.3644 458.6 26.0428 457.371 25.3995C456.141 24.7374 455.186 23.8199 454.505 22.647C453.843 21.474 453.512 20.1498 453.512 18.6742C453.512 17.2175 453.834 15.9027 454.477 14.7297C455.139 13.5568 456.037 12.6487 457.172 12.0055C458.326 11.3434 459.622 11.0123 461.059 11.0123C462.497 11.0123 463.773 11.3434 464.889 12.0055C466.024 12.6487 466.904 13.5568 467.528 14.7297C468.171 15.9027 468.493 17.2458 468.493 18.7593ZM461.059 13.3109C459.754 13.3109 458.657 13.7082 457.768 14.5027C456.898 15.2973 456.387 16.3378 456.236 17.6242H465.882C465.731 16.3567 465.211 15.3257 464.322 14.5311C463.452 13.7176 462.364 13.3109 461.059 13.3109Z" fill="#2B2B2E"/>
<path d="M1409.64 26.2003L1405.35 20.0992C1404.82 20.137 1404.41 20.1559 1404.1 20.1559H1399.19V26.2003H1396.36V6.33625H1404.1C1406.68 6.33625 1408.7 6.95109 1410.17 8.18076C1411.65 9.41044 1412.39 11.1036 1412.39 13.2603C1412.39 14.7926 1412.01 16.098 1411.25 17.1763C1410.5 18.2547 1409.42 19.0398 1408.02 19.5316L1412.73 26.2003H1409.64ZM1404.02 17.7439C1405.81 17.7439 1407.19 17.356 1408.13 16.5804C1409.08 15.8048 1409.55 14.6981 1409.55 13.2603C1409.55 11.8225 1409.08 10.7252 1408.13 9.96853C1407.19 9.19288 1405.81 8.80506 1404.02 8.80506H1399.19V17.7439H1404.02Z" fill="#2B2B2E"/>
<path d="M1416.57 11.1604H1419.3V26.2003H1416.57V11.1604ZM1417.94 8.2659C1417.41 8.2659 1416.96 8.09563 1416.6 7.75511C1416.26 7.41458 1416.09 6.99838 1416.09 6.50651C1416.09 6.01464 1416.26 5.59844 1416.6 5.25792C1416.96 4.89847 1417.41 4.71875 1417.94 4.71875C1418.47 4.71875 1418.9 4.88901 1419.24 5.22954C1419.6 5.55115 1419.78 5.95789 1419.78 6.44976C1419.78 6.96055 1419.6 7.39566 1419.24 7.75511C1418.9 8.09563 1418.47 8.2659 1417.94 8.2659Z" fill="#2B2B2E"/>
<path d="M1438.88 11.1604V24.1571C1438.88 26.7867 1438.23 28.7258 1436.93 29.9744C1435.62 31.2419 1433.67 31.8757 1431.08 31.8757C1429.66 31.8757 1428.31 31.6771 1427.02 31.2798C1425.74 30.9014 1424.7 30.3528 1423.9 29.6339L1425.21 27.534C1425.91 28.1394 1426.77 28.6123 1427.79 28.9528C1428.83 29.3123 1429.9 29.492 1431 29.492C1432.75 29.492 1434.05 29.0758 1434.88 28.2434C1435.73 27.411 1436.16 26.1435 1436.16 24.4409V23.249C1435.52 24.0247 1434.72 24.6111 1433.78 25.0084C1432.85 25.3868 1431.84 25.576 1430.74 25.576C1429.3 25.576 1428 25.2733 1426.83 24.6679C1425.67 24.0436 1424.76 23.1828 1424.1 22.0856C1423.44 20.9694 1423.11 19.7019 1423.11 18.283C1423.11 16.8642 1423.44 15.6061 1424.1 14.5089C1424.76 13.3927 1425.67 12.5319 1426.83 11.9265C1428 11.3212 1429.3 11.0185 1430.74 11.0185C1431.88 11.0185 1432.93 11.2266 1433.89 11.6428C1434.87 12.059 1435.68 12.6738 1436.3 13.4873V11.1604H1438.88ZM1431.05 23.1923C1432.04 23.1923 1432.92 22.9842 1433.69 22.568C1434.49 22.1518 1435.1 21.5748 1435.54 20.837C1435.99 20.0803 1436.22 19.2289 1436.22 18.283C1436.22 16.8263 1435.73 15.6534 1434.77 14.7643C1433.8 13.8562 1432.57 13.4022 1431.05 13.4022C1429.52 13.4022 1428.27 13.8562 1427.31 14.7643C1426.34 15.6534 1425.86 16.8263 1425.86 18.283C1425.86 19.2289 1426.08 20.0803 1426.51 20.837C1426.97 21.5748 1427.58 22.1518 1428.36 22.568C1429.15 22.9842 1430.05 23.1923 1431.05 23.1923Z" fill="#2B2B2E"/>
<path d="M1452.12 11.0185C1454.03 11.0185 1455.54 11.5766 1456.66 12.6927C1457.79 13.79 1458.36 15.4075 1458.36 17.5452V26.2003H1455.63V17.8574C1455.63 16.4007 1455.29 15.3034 1454.59 14.5656C1453.89 13.8278 1452.88 13.4589 1451.58 13.4589C1450.1 13.4589 1448.94 13.894 1448.09 14.7643C1447.24 15.6156 1446.81 16.8453 1446.81 18.4533V26.2003H1444.09V5.14441H1446.81V13.2887C1447.38 12.5698 1448.12 12.0117 1449.02 11.6144C1449.95 11.2171 1450.98 11.0185 1452.12 11.0185Z" fill="#2B2B2E"/>
<path d="M1471.85 25.3206C1471.46 25.6611 1470.97 25.926 1470.38 26.1151C1469.79 26.2854 1469.19 26.3705 1468.56 26.3705C1467.05 26.3705 1465.88 25.9638 1465.05 25.1503C1464.21 24.3368 1463.8 23.1734 1463.8 21.6599V13.4022H1461.24V11.1604H1463.8V7.86862H1466.52V11.1604H1470.83V13.4022H1466.52V21.5464C1466.52 22.3599 1466.72 22.9842 1467.12 23.4193C1467.53 23.8544 1468.12 24.072 1468.88 24.072C1469.71 24.072 1470.42 23.8355 1471 23.3625L1471.85 25.3206Z" fill="#2B2B2E"/>
<path d="M1481.8 17.2331H1489.43V19.5884H1481.8V17.2331Z" fill="#2B2B2E"/>
<path d="M1510.53 26.4273C1508.54 26.4273 1506.74 25.9922 1505.13 25.1219C1503.55 24.2328 1502.3 23.022 1501.39 21.4897C1500.48 19.9384 1500.03 18.1979 1500.03 16.2683C1500.03 14.3386 1500.48 12.6076 1501.39 11.0752C1502.3 9.52395 1503.55 8.31319 1505.16 7.44296C1506.77 6.55381 1508.57 6.10923 1510.55 6.10923C1512.1 6.10923 1513.52 6.37409 1514.81 6.90379C1516.1 7.41458 1517.19 8.18076 1518.1 9.20234L1516.26 10.9901C1514.76 9.4199 1512.9 8.6348 1510.67 8.6348C1509.19 8.6348 1507.86 8.96587 1506.67 9.628C1505.47 10.2901 1504.54 11.2077 1503.86 12.3806C1503.2 13.5346 1502.86 14.8305 1502.86 16.2683C1502.86 17.706 1503.2 19.0114 1503.86 20.1843C1504.54 21.3383 1505.47 22.2464 1506.67 22.9085C1507.86 23.5706 1509.19 23.9017 1510.67 23.9017C1512.88 23.9017 1514.74 23.1072 1516.26 21.518L1518.1 23.3058C1517.19 24.3274 1516.09 25.103 1514.78 25.6327C1513.49 26.1624 1512.08 26.4273 1510.53 26.4273Z" fill="#2B2B2E"/>
<path d="M1527.55 26.3705C1526.06 26.3705 1524.72 26.0395 1523.53 25.3773C1522.33 24.7152 1521.4 23.8071 1520.72 22.6531C1520.05 21.4802 1519.72 20.1559 1519.72 18.6803C1519.72 17.2047 1520.05 15.8899 1520.72 14.7359C1521.4 13.563 1522.33 12.6549 1523.53 12.0117C1524.72 11.3495 1526.06 11.0185 1527.55 11.0185C1529.05 11.0185 1530.38 11.3495 1531.55 12.0117C1532.75 12.6549 1533.67 13.563 1534.33 14.7359C1535.02 15.8899 1535.36 17.2047 1535.36 18.6803C1535.36 20.1559 1535.02 21.4802 1534.33 22.6531C1533.67 23.8071 1532.75 24.7152 1531.55 25.3773C1530.38 26.0395 1529.05 26.3705 1527.55 26.3705ZM1527.55 23.9868C1528.52 23.9868 1529.38 23.7693 1530.14 23.3342C1530.91 22.8801 1531.52 22.2558 1531.95 21.4613C1532.39 20.6478 1532.6 19.7208 1532.6 18.6803C1532.6 17.6398 1532.39 16.7223 1531.95 15.9277C1531.52 15.1143 1530.91 14.49 1530.14 14.0548C1529.38 13.6197 1528.52 13.4022 1527.55 13.4022C1526.59 13.4022 1525.72 13.6197 1524.94 14.0548C1524.19 14.49 1523.58 15.1143 1523.13 15.9277C1522.69 16.7223 1522.48 17.6398 1522.48 18.6803C1522.48 19.7208 1522.69 20.6478 1523.13 21.4613C1523.58 22.2558 1524.19 22.8801 1524.94 23.3342C1525.72 23.7693 1526.59 23.9868 1527.55 23.9868Z" fill="#2B2B2E"/>
<path d="M1547.15 11.0185C1549.06 11.0185 1550.58 11.5766 1551.69 12.6927C1552.83 13.79 1553.39 15.4075 1553.39 17.5452V26.2003H1550.67V17.8574C1550.67 16.4007 1550.32 15.3034 1549.62 14.5656C1548.92 13.8278 1547.92 13.4589 1546.61 13.4589C1545.14 13.4589 1543.97 13.894 1543.12 14.7643C1542.27 15.6156 1541.85 16.8453 1541.85 18.4533V26.2003H1539.12V11.1604H1541.73V13.4305C1542.28 12.6549 1543.02 12.059 1543.95 11.6428C1544.89 11.2266 1545.96 11.0185 1547.15 11.0185Z" fill="#2B2B2E"/>
<path d="M1562.75 26.3705C1561.52 26.3705 1560.34 26.2097 1559.2 25.8881C1558.07 25.5476 1557.18 25.1219 1556.53 24.6111L1557.67 22.4545C1558.33 22.9274 1559.13 23.3058 1560.08 23.5896C1561.03 23.8733 1561.98 24.0152 1562.95 24.0152C1565.33 24.0152 1566.52 23.3342 1566.52 21.9721C1566.52 21.518 1566.36 21.1586 1566.04 20.8937C1565.72 20.6289 1565.31 20.4397 1564.82 20.3262C1564.35 20.1938 1563.66 20.0519 1562.78 19.9005C1561.57 19.7114 1560.57 19.4938 1559.8 19.2479C1559.04 19.0019 1558.39 18.5857 1557.84 17.9993C1557.29 17.4128 1557.02 16.5899 1557.02 15.5304C1557.02 14.1683 1557.58 13.0806 1558.72 12.2671C1559.85 11.4347 1561.38 11.0185 1563.29 11.0185C1564.29 11.0185 1565.29 11.1414 1566.29 11.3874C1567.3 11.6333 1568.12 11.9644 1568.76 12.3806L1567.6 14.5372C1566.37 13.7427 1564.92 13.3454 1563.26 13.3454C1562.1 13.3454 1561.22 13.5346 1560.62 13.913C1560.01 14.2913 1559.71 14.7926 1559.71 15.4169C1559.71 15.9088 1559.88 16.2966 1560.22 16.5804C1560.56 16.8642 1560.98 17.0723 1561.47 17.2047C1561.98 17.3371 1562.69 17.4885 1563.6 17.6587C1564.81 17.8668 1565.78 18.0939 1566.52 18.3398C1567.28 18.5668 1567.92 18.9641 1568.45 19.5316C1568.98 20.0992 1569.24 20.8937 1569.24 21.9153C1569.24 23.2774 1568.66 24.3652 1567.49 25.1787C1566.33 25.9732 1564.75 26.3705 1562.75 26.3705Z" fill="#2B2B2E"/>
<path d="M1586.24 18.7654C1586.24 18.9735 1586.22 19.2479 1586.18 19.5884H1573.98C1574.15 20.9127 1574.73 21.9815 1575.71 22.795C1576.72 23.5896 1577.95 23.9868 1579.43 23.9868C1581.23 23.9868 1582.67 23.3815 1583.77 22.1707L1585.27 23.9301C1584.59 24.7247 1583.74 25.33 1582.72 25.7462C1581.72 26.1624 1580.59 26.3705 1579.34 26.3705C1577.76 26.3705 1576.35 26.0489 1575.12 25.4057C1573.89 24.7436 1572.93 23.826 1572.25 22.6531C1571.59 21.4802 1571.26 20.1559 1571.26 18.6803C1571.26 17.2236 1571.58 15.9088 1572.22 14.7359C1572.89 13.563 1573.78 12.6549 1574.92 12.0117C1576.07 11.3495 1577.37 11.0185 1578.81 11.0185C1580.24 11.0185 1581.52 11.3495 1582.64 12.0117C1583.77 12.6549 1584.65 13.563 1585.27 14.7359C1585.92 15.9088 1586.24 17.252 1586.24 18.7654ZM1578.81 13.317C1577.5 13.317 1576.4 13.7143 1575.51 14.5089C1574.64 15.3034 1574.13 16.3439 1573.98 17.6304H1583.63C1583.48 16.3628 1582.96 15.3318 1582.07 14.5372C1581.2 13.7238 1580.11 13.317 1578.81 13.317Z" fill="#2B2B2E"/>
<path d="M1592.63 13.6859C1593.1 12.8157 1593.8 12.1536 1594.73 11.6995C1595.66 11.2455 1596.78 11.0185 1598.11 11.0185V13.6576C1597.96 13.6386 1597.75 13.6292 1597.48 13.6292C1596.01 13.6292 1594.84 14.0738 1593.99 14.9629C1593.16 15.8331 1592.74 17.0817 1592.74 18.7087V26.2003H1590.02V11.1604H1592.63V13.6859Z" fill="#2B2B2E"/>
<path d="M1615.38 11.1604L1608.8 26.2003H1606.02L1599.44 11.1604H1602.27L1607.44 23.2207L1612.71 11.1604H1615.38Z" fill="#2B2B2E"/>
<path d="M1622.93 11.0185C1625.01 11.0185 1626.6 11.5293 1627.69 12.5508C1628.81 13.5724 1629.37 15.0953 1629.37 17.1196V26.2003H1626.79V24.2139C1626.33 24.9138 1625.68 25.453 1624.83 25.8314C1624 26.1908 1623 26.3705 1621.85 26.3705C1620.17 26.3705 1618.81 25.9638 1617.79 25.1503C1616.79 24.3368 1616.29 23.268 1616.29 21.9437C1616.29 20.6194 1616.77 19.56 1617.73 18.7654C1618.7 17.952 1620.23 17.5452 1622.33 17.5452H1626.64V17.0061C1626.64 15.8331 1626.3 14.9345 1625.62 14.3102C1624.94 13.6859 1623.94 13.3738 1622.61 13.3738C1621.73 13.3738 1620.86 13.5251 1620 13.8278C1619.15 14.1116 1618.43 14.4994 1617.85 14.9913L1616.71 12.9481C1617.49 12.3238 1618.42 11.8509 1619.49 11.5293C1620.57 11.1887 1621.72 11.0185 1622.93 11.0185ZM1622.3 24.2706C1623.34 24.2706 1624.24 24.0436 1625 23.5896C1625.75 23.1166 1626.3 22.4545 1626.64 21.6032V19.5033H1622.44C1620.14 19.5033 1618.98 20.2789 1618.98 21.8302C1618.98 22.5869 1619.28 23.1828 1619.86 23.6179C1620.45 24.0531 1621.26 24.2706 1622.3 24.2706Z" fill="#2B2B2E"/>
<path d="M1642.86 25.3206C1642.47 25.6611 1641.97 25.926 1641.39 26.1151C1640.8 26.2854 1640.2 26.3705 1639.57 26.3705C1638.06 26.3705 1636.89 25.9638 1636.05 25.1503C1635.22 24.3368 1634.81 23.1734 1634.81 21.6599V13.4022H1632.25V11.1604H1634.81V7.86862H1637.53V11.1604H1641.84V13.4022H1637.53V21.5464C1637.53 22.3599 1637.73 22.9842 1638.12 23.4193C1638.54 23.8544 1639.13 24.072 1639.88 24.072C1640.72 24.072 1641.43 23.8355 1642.01 23.3625L1642.86 25.3206Z" fill="#2B2B2E"/>
<path d="M1646.16 11.1604H1648.88V26.2003H1646.16V11.1604ZM1647.52 8.2659C1646.99 8.2659 1646.54 8.09563 1646.18 7.75511C1645.84 7.41458 1645.67 6.99838 1645.67 6.50651C1645.67 6.01464 1645.84 5.59844 1646.18 5.25792C1646.54 4.89847 1646.99 4.71875 1647.52 4.71875C1648.05 4.71875 1648.48 4.88901 1648.82 5.22954C1649.18 5.55115 1649.36 5.95789 1649.36 6.44976C1649.36 6.96055 1649.18 7.39566 1648.82 7.75511C1648.48 8.09563 1648.05 8.2659 1647.52 8.2659Z" fill="#2B2B2E"/>
<path d="M1667.39 11.1604L1660.8 26.2003H1658.02L1651.44 11.1604H1654.28L1659.44 23.2207L1664.72 11.1604H1667.39Z" fill="#2B2B2E"/>
<path d="M1683.1 18.7654C1683.1 18.9735 1683.08 19.2479 1683.05 19.5884H1670.85C1671.02 20.9127 1671.59 21.9815 1672.58 22.795C1673.58 23.5896 1674.82 23.9868 1676.29 23.9868C1678.09 23.9868 1679.54 23.3815 1680.63 22.1707L1682.14 23.9301C1681.46 24.7247 1680.61 25.33 1679.59 25.7462C1678.58 26.1624 1677.46 26.3705 1676.21 26.3705C1674.62 26.3705 1673.21 26.0489 1671.98 25.4057C1670.75 24.7436 1669.8 23.826 1669.12 22.6531C1668.45 21.4802 1668.12 20.1559 1668.12 18.6803C1668.12 17.2236 1668.44 15.9088 1669.09 14.7359C1669.75 13.563 1670.65 12.6549 1671.78 12.0117C1672.94 11.3495 1674.23 11.0185 1675.67 11.0185C1677.11 11.0185 1678.38 11.3495 1679.5 12.0117C1680.63 12.6549 1681.51 13.563 1682.14 14.7359C1682.78 15.9088 1683.1 17.252 1683.1 18.7654ZM1675.67 13.317C1674.36 13.317 1673.27 13.7143 1672.38 14.5089C1671.51 15.3034 1671 16.3439 1670.85 17.6304H1680.49C1680.34 16.3628 1679.82 15.3318 1678.93 14.5372C1678.06 13.7238 1676.97 13.317 1675.67 13.317Z" fill="#2B2B2E"/>
<rect x="61" width="34.9195" height="34.9257" rx="3" fill="#5282DE"/>
<rect x="1341" width="34.9195" height="34.9257" rx="3" fill="#E84C52"/>
<rect width="7" height="266" rx="3.5" transform="matrix(-1 0 0 1 44 332)" fill="#ADA7F0"/>
<rect width="7" height="266" rx="3.5" transform="matrix(-1 0 0 1 44 602)" fill="#B1B1B1"/>
<rect width="7" height="266" rx="3.5" transform="matrix(-1 0 0 1 44 61)" fill="#5282DE"/>
<rect width="6.54855" height="519.428" rx="3.27428" transform="matrix(4.37037e-08 -1 -1 -4.37191e-08 607.428 893.549)" fill="#5282DE"/>
<rect width="6.54855" height="519.428" rx="3.27428" transform="matrix(4.37037e-08 -1 -1 -4.37191e-08 1655.01 893.549)" fill="#E84C52"/>
<rect width="6.54857" height="126.583" rx="3.27428" transform="matrix(4.37037e-08 -1 -1 -4.37191e-08 738.376 893.549)" fill="#ADA7F0"/>
<rect width="6.54857" height="126.583" rx="3.27428" transform="matrix(4.37037e-08 -1 -1 -4.37191e-08 1131.22 893.549)" fill="#F0A3C8"/>
<rect width="6.54856" height="257.531" rx="3.27428" transform="matrix(4.37037e-08 -1 -1 -4.37191e-08 1000.27 893.549)" fill="#B1B1B1"/>
<path d="M292.709 918.431L298.261 918.431C299.588 918.431 300.758 918.687 301.771 919.2C302.795 919.7 303.586 920.41 304.145 921.33C304.715 922.25 305.001 923.321 305.001 924.543C305.001 925.766 304.715 926.837 304.145 927.756C303.586 928.676 302.795 929.392 301.771 929.904C300.758 930.405 299.588 930.655 298.261 930.655H292.709L292.709 918.431ZM298.122 928.333C299.344 928.333 300.316 927.995 301.037 927.32C301.771 926.633 302.137 925.707 302.137 924.543C302.137 923.379 301.771 922.459 301.037 921.784C300.316 921.097 299.344 920.754 298.122 920.754L295.537 920.754L295.537 928.333H298.122Z" fill="#2B2B2E"/>
<path d="M316.597 928.385V930.655L307.134 930.655L307.134 918.431L316.37 918.431L316.37 920.701L309.945 920.701V923.356L315.619 923.356V925.556L309.945 925.556V928.385H316.597Z" fill="#2B2B2E"/>
<path d="M318.847 918.431L324.4 918.431C325.727 918.431 326.896 918.687 327.909 919.2C328.933 919.7 329.725 920.41 330.284 921.33C330.854 922.25 331.139 923.321 331.139 924.543C331.139 925.766 330.854 926.837 330.284 927.756C329.725 928.676 328.933 929.392 327.909 929.904C326.896 930.405 325.727 930.655 324.4 930.655H318.847L318.847 918.431ZM324.26 928.333C325.482 928.333 326.454 927.995 327.176 927.32C327.909 926.633 328.276 925.707 328.276 924.543C328.276 923.379 327.909 922.459 327.176 921.784C326.454 921.097 325.482 920.754 324.26 920.754L321.676 920.754V928.333L324.26 928.333Z" fill="#2B2B2E"/>
<path d="M333.272 918.431L336.101 918.431L336.101 930.655H333.272V918.431Z" fill="#2B2B2E"/>
<path d="M344.85 930.865C343.605 930.865 342.476 930.597 341.463 930.062C340.462 929.514 339.671 928.763 339.089 927.809C338.518 926.843 338.233 925.754 338.233 924.543C338.233 923.332 338.518 922.25 339.089 921.295C339.671 920.329 340.462 919.578 341.463 919.042C342.476 918.495 343.611 918.222 344.868 918.222C345.927 918.222 346.881 918.408 347.731 918.78C348.592 919.153 349.314 919.689 349.896 920.387L348.08 922.064C347.254 921.109 346.23 920.632 345.007 920.632C344.251 920.632 343.576 920.8 342.982 921.138C342.388 921.464 341.923 921.924 341.585 922.518C341.259 923.111 341.096 923.787 341.096 924.543C341.096 925.3 341.259 925.975 341.585 926.569C341.923 927.163 342.388 927.628 342.982 927.966C343.576 928.292 344.251 928.455 345.007 928.455C346.23 928.455 347.254 927.972 348.08 927.006L349.896 928.682C349.314 929.392 348.592 929.933 347.731 930.306C346.87 930.679 345.91 930.865 344.85 930.865Z" fill="#2B2B2E"/>
<path d="M359.616 928.036L353.942 928.036L352.86 930.655L349.961 930.655L355.409 918.431L358.202 918.431L363.667 930.655L360.699 930.655L359.616 928.036ZM358.726 925.888L356.788 921.208L354.85 925.888H358.726Z" fill="#2B2B2E"/>
<path d="M366.853 920.736L362.942 920.736V918.431L373.592 918.431V920.736L369.681 920.736V930.655H366.853V920.736Z" fill="#2B2B2E"/>
<path d="M384.578 928.385V930.655H375.114V918.431L384.351 918.431V920.701L377.925 920.701V923.356L383.6 923.356V925.556L377.925 925.556V928.385H384.578Z" fill="#2B2B2E"/>
<path d="M386.828 918.431L392.38 918.431C393.707 918.431 394.877 918.687 395.89 919.2C396.914 919.7 397.706 920.41 398.264 921.33C398.835 922.25 399.12 923.321 399.12 924.543C399.12 925.766 398.835 926.837 398.264 927.756C397.706 928.676 396.914 929.392 395.89 929.904C394.877 930.405 393.707 930.655 392.38 930.655H386.828V918.431ZM392.241 928.333C393.463 928.333 394.435 927.995 395.156 927.32C395.89 926.633 396.256 925.707 396.256 924.543C396.256 923.379 395.89 922.459 395.156 921.784C394.435 921.097 393.463 920.754 392.241 920.754L389.657 920.754V928.333H392.241Z" fill="#2B2B2E"/>
<path d="M1342.48 918.431L1348.03 918.431C1349.35 918.431 1350.52 918.687 1351.54 919.2C1352.56 919.7 1353.35 920.41 1353.91 921.33C1354.48 922.25 1354.77 923.321 1354.77 924.543C1354.77 925.766 1354.48 926.837 1353.91 927.756C1353.35 928.676 1352.56 929.392 1351.54 929.904C1350.52 930.405 1349.35 930.655 1348.03 930.655H1342.48L1342.48 918.431ZM1347.89 928.333C1349.11 928.333 1350.08 927.995 1350.8 927.32C1351.54 926.633 1351.9 925.707 1351.9 924.543C1351.9 923.379 1351.54 922.459 1350.8 921.784C1350.08 921.097 1349.11 920.754 1347.89 920.754L1345.3 920.754L1345.3 928.333H1347.89Z" fill="#2B2B2E"/>
<path d="M1366.36 928.385V930.655L1356.9 930.655L1356.9 918.431L1366.14 918.431L1366.14 920.701L1359.71 920.701V923.356L1365.39 923.356V925.556L1359.71 925.556V928.385H1366.36Z" fill="#2B2B2E"/>
<path d="M1368.61 918.431L1374.17 918.431C1375.49 918.431 1376.66 918.687 1377.68 919.2C1378.7 919.7 1379.49 920.41 1380.05 921.33C1380.62 922.25 1380.91 923.321 1380.91 924.543C1380.91 925.766 1380.62 926.837 1380.05 927.756C1379.49 928.676 1378.7 929.392 1377.68 929.904C1376.66 930.405 1375.49 930.655 1374.17 930.655H1368.61L1368.61 918.431ZM1374.03 928.333C1375.25 928.333 1376.22 927.995 1376.94 927.32C1377.68 926.633 1378.04 925.707 1378.04 924.543C1378.04 923.379 1377.68 922.459 1376.94 921.784C1376.22 921.097 1375.25 920.754 1374.03 920.754L1371.44 920.754V928.333L1374.03 928.333Z" fill="#2B2B2E"/>
<path d="M1383.04 918.431L1385.87 918.431L1385.87 930.655H1383.04V918.431Z" fill="#2B2B2E"/>
<path d="M1394.62 930.865C1393.37 930.865 1392.24 930.597 1391.23 930.062C1390.23 929.514 1389.44 928.763 1388.85 927.809C1388.28 926.843 1388 925.754 1388 924.543C1388 923.332 1388.28 922.25 1388.85 921.295C1389.44 920.329 1390.23 919.578 1391.23 919.042C1392.24 918.495 1393.38 918.222 1394.63 918.222C1395.69 918.222 1396.65 918.408 1397.5 918.78C1398.36 919.153 1399.08 919.689 1399.66 920.387L1397.85 922.064C1397.02 921.109 1396 920.632 1394.77 920.632C1394.02 920.632 1393.34 920.8 1392.75 921.138C1392.15 921.464 1391.69 921.924 1391.35 922.518C1391.03 923.111 1390.86 923.787 1390.86 924.543C1390.86 925.3 1391.03 925.975 1391.35 926.569C1391.69 927.163 1392.15 927.628 1392.75 927.966C1393.34 928.292 1394.02 928.455 1394.77 928.455C1396 928.455 1397.02 927.972 1397.85 927.006L1399.66 928.682C1399.08 929.392 1398.36 929.933 1397.5 930.306C1396.64 930.679 1395.68 930.865 1394.62 930.865Z" fill="#2B2B2E"/>
<path d="M1409.38 928.036L1403.71 928.036L1402.63 930.655L1399.73 930.655L1405.17 918.431L1407.97 918.431L1413.43 930.655L1410.47 930.655L1409.38 928.036ZM1408.49 925.888L1406.55 921.208L1404.62 925.888H1408.49Z" fill="#2B2B2E"/>
<path d="M1416.62 920.736L1412.71 920.736V918.431L1423.36 918.431V920.736L1419.45 920.736V930.655H1416.62V920.736Z" fill="#2B2B2E"/>
<path d="M1434.34 928.385V930.655H1424.88V918.431L1434.12 918.431V920.701L1427.69 920.701V923.356L1433.37 923.356V925.556L1427.69 925.556V928.385H1434.34Z" fill="#2B2B2E"/>
<path d="M1436.59 918.431L1442.15 918.431C1443.47 918.431 1444.64 918.687 1445.66 919.2C1446.68 919.7 1447.47 920.41 1448.03 921.33C1448.6 922.25 1448.89 923.321 1448.89 924.543C1448.89 925.766 1448.6 926.837 1448.03 927.756C1447.47 928.676 1446.68 929.392 1445.66 929.904C1444.64 930.405 1443.47 930.655 1442.15 930.655H1436.59V918.431ZM1442.01 928.333C1443.23 928.333 1444.2 927.995 1444.92 927.32C1445.66 926.633 1446.02 925.707 1446.02 924.543C1446.02 923.379 1445.66 922.459 1444.92 921.784C1444.2 921.097 1443.23 920.754 1442.01 920.754L1439.42 920.754V928.333H1442.01Z" fill="#2B2B2E"/>
<path d="M614.864 930.865C613.595 930.865 612.448 930.591 611.424 930.044C610.411 929.497 609.614 928.746 609.032 927.791C608.462 926.825 608.177 925.742 608.177 924.543C608.177 923.344 608.462 922.267 609.032 921.313C609.614 920.346 610.411 919.59 611.424 919.042C612.448 918.495 613.595 918.222 614.864 918.222C616.132 918.222 617.273 918.495 618.286 919.042C619.298 919.59 620.096 920.346 620.678 921.313C621.26 922.267 621.551 923.344 621.551 924.543C621.551 925.742 621.26 926.825 620.678 927.791C620.096 928.746 619.298 929.497 618.286 930.044C617.273 930.591 616.132 930.865 614.864 930.865ZM614.864 928.455C615.585 928.455 616.237 928.292 616.819 927.966C617.401 927.628 617.855 927.163 618.181 926.569C618.519 925.975 618.687 925.3 618.687 924.543C618.687 923.787 618.519 923.111 618.181 922.518C617.855 921.924 617.401 921.464 616.819 921.138C616.237 920.8 615.585 920.632 614.864 920.632C614.142 920.632 613.49 920.8 612.908 921.138C612.326 921.464 611.866 921.924 611.529 922.518C611.203 923.111 611.04 923.787 611.04 924.543C611.04 925.3 611.203 925.975 611.529 926.569C611.866 927.163 612.326 927.628 612.908 927.966C613.49 928.292 614.142 928.455 614.864 928.455Z" fill="#2B2B2E"/>
<path d="M628.967 918.431C630.049 918.431 630.986 918.612 631.778 918.973C632.581 919.333 633.198 919.846 633.628 920.509C634.059 921.173 634.275 921.959 634.275 922.867C634.275 923.763 634.059 924.549 633.628 925.224C633.198 925.888 632.581 926.4 631.778 926.761C630.986 927.11 630.049 927.285 628.967 927.285H626.505V930.655H623.676L623.676 918.431L628.967 918.431ZM628.81 924.98C629.659 924.98 630.305 924.799 630.748 924.438C631.19 924.066 631.411 923.542 631.411 922.867C631.411 922.18 631.19 921.656 630.748 921.295C630.305 920.923 629.659 920.736 628.81 920.736L626.505 920.736V924.98H628.81Z" fill="#2B2B2E"/>
<path d="M645.757 928.385V930.655L636.294 930.655V918.431L645.53 918.431L645.53 920.701L639.105 920.701V923.356L644.779 923.356V925.556L639.105 925.556V928.385H645.757Z" fill="#2B2B2E"/>
<path d="M659.217 918.431V930.655H656.895L650.801 923.234V930.655H648.008L648.008 918.431L650.347 918.431L656.423 925.853V918.431L659.217 918.431Z" fill="#2B2B2E"/>
<path d="M678.175 930.655L678.157 923.321L674.561 929.363H673.286L669.707 923.478V930.655L667.053 930.655L667.053 918.431L669.393 918.431L673.967 926.028L678.472 918.431L680.794 918.431L680.829 930.655L678.175 930.655Z" fill="#2B2B2E"/>
<path d="M683.728 918.431L686.557 918.431V930.655H683.728V918.431Z" fill="#2B2B2E"/>
<path d="M700.667 918.431V930.655H698.345L692.251 923.234V930.655L689.457 930.655V918.431L691.797 918.431L697.873 925.853V918.431L700.667 918.431Z" fill="#2B2B2E"/>
<path d="M703.558 918.431L709.111 918.431C710.437 918.431 711.607 918.687 712.62 919.2C713.644 919.7 714.436 920.41 714.994 921.33C715.565 922.25 715.85 923.321 715.85 924.543C715.85 925.766 715.565 926.837 714.994 927.756C714.436 928.676 713.644 929.392 712.62 929.904C711.607 930.405 710.437 930.655 709.111 930.655L703.558 930.655V918.431ZM708.971 928.333C710.193 928.333 711.165 927.995 711.887 927.32C712.62 926.633 712.987 925.707 712.987 924.543C712.987 923.379 712.62 922.459 711.887 921.784C711.165 921.097 710.193 920.754 708.971 920.754L706.387 920.754V928.333H708.971Z" fill="#2B2B2E"/>
<path d="M727.446 928.385V930.655H717.983V918.431L727.219 918.431V920.701L720.794 920.701V923.356L726.469 923.356V925.556L720.794 925.556V928.385H727.446Z" fill="#2B2B2E"/>
<path d="M729.697 918.431L735.249 918.431C736.576 918.431 737.746 918.687 738.758 919.2C739.783 919.7 740.574 920.41 741.133 921.33C741.703 922.25 741.988 923.321 741.988 924.543C741.988 925.766 741.703 926.837 741.133 927.756C740.574 928.676 739.783 929.392 738.758 929.904C737.746 930.405 736.576 930.655 735.249 930.655H729.697V918.431ZM735.109 928.333C736.332 928.333 737.303 927.995 738.025 927.32C738.758 926.633 739.125 925.707 739.125 924.543C739.125 923.379 738.758 922.459 738.025 921.784C737.303 921.097 736.332 920.754 735.109 920.754H732.525V928.333H735.109Z" fill="#2B2B2E"/>
<path d="M1007.71 930.865C1006.44 930.865 1005.29 930.591 1004.27 930.044C1003.26 929.497 1002.46 928.746 1001.88 927.791C1001.31 926.825 1001.02 925.742 1001.02 924.543C1001.02 923.344 1001.31 922.267 1001.88 921.313C1002.46 920.346 1003.26 919.59 1004.27 919.042C1005.29 918.495 1006.44 918.222 1007.71 918.222C1008.98 918.222 1010.12 918.495 1011.13 919.042C1012.14 919.59 1012.94 920.346 1013.52 921.313C1014.11 922.267 1014.4 923.344 1014.4 924.543C1014.4 925.742 1014.11 926.825 1013.52 927.791C1012.94 928.746 1012.14 929.497 1011.13 930.044C1010.12 930.591 1008.98 930.865 1007.71 930.865ZM1007.71 928.455C1008.43 928.455 1009.08 928.292 1009.66 927.966C1010.25 927.628 1010.7 927.163 1011.03 926.569C1011.36 925.975 1011.53 925.3 1011.53 924.543C1011.53 923.787 1011.36 923.111 1011.03 922.518C1010.7 921.924 1010.25 921.464 1009.66 921.138C1009.08 920.8 1008.43 920.632 1007.71 920.632C1006.99 920.632 1006.34 920.8 1005.75 921.138C1005.17 921.464 1004.71 921.924 1004.37 922.518C1004.05 923.111 1003.89 923.787 1003.89 924.543C1003.89 925.3 1004.05 925.975 1004.37 926.569C1004.71 927.163 1005.17 927.628 1005.75 927.966C1006.34 928.292 1006.99 928.455 1007.71 928.455Z" fill="#2B2B2E"/>
<path d="M1021.81 918.431C1022.89 918.431 1023.83 918.612 1024.62 918.973C1025.43 919.333 1026.04 919.846 1026.47 920.509C1026.9 921.173 1027.12 921.959 1027.12 922.867C1027.12 923.763 1026.9 924.549 1026.47 925.224C1026.04 925.888 1025.43 926.4 1024.62 926.761C1023.83 927.11 1022.89 927.285 1021.81 927.285H1019.35V930.655H1016.52L1016.52 918.431L1021.81 918.431ZM1021.66 924.98C1022.5 924.98 1023.15 924.799 1023.59 924.438C1024.04 924.066 1024.26 923.542 1024.26 922.867C1024.26 922.18 1024.04 921.656 1023.59 921.295C1023.15 920.923 1022.5 920.736 1021.66 920.736L1019.35 920.736V924.98H1021.66Z" fill="#2B2B2E"/>
<path d="M1038.6 928.385V930.655L1029.14 930.655V918.431L1038.38 918.431L1038.38 920.701L1031.95 920.701V923.356L1037.62 923.356V925.556L1031.95 925.556V928.385H1038.6Z" fill="#2B2B2E"/>
<path d="M1052.06 918.431V930.655H1049.74L1043.65 923.234V930.655H1040.85L1040.85 918.431L1043.19 918.431L1049.27 925.853V918.431L1052.06 918.431Z" fill="#2B2B2E"/>
<path d="M1071.02 930.655L1071 923.321L1067.41 929.363H1066.13L1062.55 923.478V930.655L1059.9 930.655L1059.9 918.431L1062.24 918.431L1066.81 926.028L1071.32 918.431L1073.64 918.431L1073.67 930.655L1071.02 930.655Z" fill="#2B2B2E"/>
<path d="M1076.57 918.431L1079.4 918.431V930.655H1076.57V918.431Z" fill="#2B2B2E"/>
<path d="M1093.51 918.431V930.655H1091.19L1085.1 923.234V930.655L1082.3 930.655V918.431L1084.64 918.431L1090.72 925.853V918.431L1093.51 918.431Z" fill="#2B2B2E"/>
<path d="M1096.4 918.431L1101.96 918.431C1103.28 918.431 1104.45 918.687 1105.47 919.2C1106.49 919.7 1107.28 920.41 1107.84 921.33C1108.41 922.25 1108.7 923.321 1108.7 924.543C1108.7 925.766 1108.41 926.837 1107.84 927.756C1107.28 928.676 1106.49 929.392 1105.47 929.904C1104.45 930.405 1103.28 930.655 1101.96 930.655L1096.4 930.655V918.431ZM1101.82 928.333C1103.04 928.333 1104.01 927.995 1104.73 927.32C1105.47 926.633 1105.83 925.707 1105.83 924.543C1105.83 923.379 1105.47 922.459 1104.73 921.784C1104.01 921.097 1103.04 920.754 1101.82 920.754L1099.23 920.754V928.333H1101.82Z" fill="#2B2B2E"/>
<path d="M1120.29 928.385V930.655H1110.83V918.431L1120.06 918.431V920.701L1113.64 920.701V923.356L1119.31 923.356V925.556L1113.64 925.556V928.385H1120.29Z" fill="#2B2B2E"/>
<path d="M1122.54 918.431L1128.09 918.431C1129.42 918.431 1130.59 918.687 1131.6 919.2C1132.63 919.7 1133.42 920.41 1133.98 921.33C1134.55 922.25 1134.83 923.321 1134.83 924.543C1134.83 925.766 1134.55 926.837 1133.98 927.756C1133.42 928.676 1132.63 929.392 1131.6 929.904C1130.59 930.405 1129.42 930.655 1128.09 930.655H1122.54V918.431ZM1127.95 928.333C1129.18 928.333 1130.15 927.995 1130.87 927.32C1131.6 926.633 1131.97 925.707 1131.97 924.543C1131.97 923.379 1131.6 922.459 1130.87 921.784C1130.15 921.097 1129.18 920.754 1127.95 920.754H1125.37V928.333H1127.95Z" fill="#2B2B2E"/>
<path d="M804.148 918.437L806.977 918.437L806.977 930.661H804.148L804.148 918.437Z" fill="#2B2B2E"/>
<path d="M821.086 918.437L821.086 930.661H818.764L812.671 923.239L812.671 930.661L809.877 930.661L809.877 918.437L812.217 918.437L818.293 925.859L818.293 918.437L821.086 918.437Z" fill="#2B2B2E"/>
<path d="M823.978 918.437L829.53 918.437C830.857 918.437 832.027 918.693 833.04 919.205C834.064 919.706 834.855 920.416 835.414 921.336C835.984 922.256 836.27 923.327 836.27 924.549C836.27 925.771 835.984 926.842 835.414 927.762C834.855 928.682 834.064 929.398 833.04 929.91C832.027 930.411 830.857 930.661 829.53 930.661H823.978L823.978 918.437ZM829.391 928.338C830.613 928.338 831.585 928.001 832.306 927.326C833.04 926.639 833.406 925.713 833.406 924.549C833.406 923.385 833.04 922.465 832.306 921.79C831.585 921.103 830.613 920.76 829.391 920.76H826.806V928.338H829.391Z" fill="#2B2B2E"/>
<path d="M847.866 928.391V930.661L838.403 930.661L838.403 918.437L847.639 918.437V920.707L841.214 920.707V923.362L846.888 923.362V925.562L841.214 925.562V928.391H847.866Z" fill="#2B2B2E"/>
<path d="M855.407 918.437C856.489 918.437 857.426 918.617 858.218 918.978C859.021 919.339 859.638 919.852 860.069 920.515C860.499 921.179 860.715 921.965 860.715 922.873C860.715 923.769 860.499 924.555 860.069 925.23C859.638 925.894 859.021 926.406 858.218 926.767C857.426 927.116 856.489 927.291 855.407 927.291L852.945 927.291V930.661H850.116V918.437L855.407 918.437ZM855.25 924.986C856.099 924.986 856.745 924.805 857.188 924.444C857.63 924.072 857.851 923.548 857.851 922.873C857.851 922.186 857.63 921.662 857.188 921.301C856.745 920.928 856.099 920.742 855.25 920.742L852.945 920.742V924.986L855.25 924.986Z" fill="#2B2B2E"/>
<path d="M872.197 928.391V930.661L862.734 930.661V918.437L871.97 918.437V920.707L865.545 920.707V923.362L871.219 923.362V925.562L865.545 925.562V928.391H872.197Z" fill="#2B2B2E"/>
<path d="M885.657 918.437V930.661H883.335L877.241 923.239V930.661H874.448V918.437L876.787 918.437L882.863 925.859V918.437L885.657 918.437Z" fill="#2B2B2E"/>
<path d="M888.548 918.437L894.101 918.437C895.428 918.437 896.597 918.693 897.61 919.205C898.634 919.706 899.426 920.416 899.985 921.336C900.555 922.256 900.84 923.327 900.84 924.549C900.84 925.771 900.555 926.842 899.985 927.762C899.426 928.682 898.634 929.398 897.61 929.91C896.597 930.411 895.428 930.661 894.101 930.661L888.548 930.661V918.437ZM893.961 928.338C895.183 928.338 896.155 928.001 896.877 927.326C897.61 926.639 897.977 925.713 897.977 924.549C897.977 923.385 897.61 922.465 896.877 921.79C896.155 921.103 895.183 920.76 893.961 920.76L891.377 920.76V928.338H893.961Z" fill="#2B2B2E"/>
<path d="M912.436 928.391V930.661L902.973 930.661V918.437L912.209 918.437V920.707L905.784 920.707V923.362L911.459 923.362V925.562L905.784 925.562V928.391L912.436 928.391Z" fill="#2B2B2E"/>
<path d="M925.896 918.437V930.661H923.574L917.48 923.239V930.661L914.687 930.661V918.437L917.027 918.437L923.103 925.859V918.437L925.896 918.437Z" fill="#2B2B2E"/>
<path d="M931.319 920.742L927.408 920.742V918.437L938.059 918.437V920.742L934.148 920.742V930.661H931.319V920.742Z" fill="#2B2B2E"/>
<rect x="1700" y="61" width="7" height="266" rx="3.5" fill="#E84C52"/>
<path d="M1731.36 697.618C1731.36 696.373 1731.62 695.243 1732.16 694.231C1732.71 693.229 1733.46 692.438 1734.41 691.856C1735.38 691.285 1736.47 691 1737.68 691C1738.89 691 1739.97 691.285 1740.93 691.856C1741.89 692.438 1742.64 693.229 1743.18 694.231C1743.73 695.243 1744 696.379 1744 697.636C1744 698.695 1743.81 699.65 1743.44 700.5C1743.07 701.361 1742.53 702.083 1741.83 702.665L1740.16 700.849C1741.11 700.022 1741.59 698.998 1741.59 697.776C1741.59 697.019 1741.42 696.344 1741.08 695.75C1740.76 695.156 1740.3 694.69 1739.7 694.353C1739.11 694.027 1738.44 693.864 1737.68 693.864C1736.92 693.864 1736.25 694.027 1735.65 694.353C1735.06 694.69 1734.59 695.156 1734.26 695.75C1733.93 696.344 1733.77 697.019 1733.77 697.776C1733.77 698.998 1734.25 700.022 1735.22 700.849L1733.54 702.665C1732.83 702.083 1732.29 701.361 1731.92 700.5C1731.54 699.638 1731.36 698.678 1731.36 697.618Z" fill="#2B2B2E"/>
<path d="M1733.84 714.04H1731.57L1731.57 704.576L1743.79 704.576V713.813H1741.52V707.387H1738.87L1738.87 713.063H1736.67L1736.67 707.387L1733.84 707.387L1733.84 714.04Z" fill="#2B2B2E"/>
<path d="M1743.79 727.503H1731.57L1731.57 725.18L1738.99 719.085H1731.57L1731.57 716.291H1743.79L1743.79 718.631L1736.37 724.709H1743.79V727.503Z" fill="#2B2B2E"/>
<path d="M1741.49 732.927V729.015H1743.79V739.668H1741.49V735.756H1731.57L1731.57 732.927L1741.49 732.927Z" fill="#2B2B2E"/>
<path d="M1731.57 748.978L1734.97 746.621L1734.97 744.019H1731.57L1731.57 741.19H1743.79L1743.79 746.481C1743.79 747.564 1743.61 748.501 1743.25 749.292C1742.89 750.096 1742.38 750.713 1741.71 751.143C1741.05 751.574 1740.26 751.79 1739.36 751.79C1738.45 751.79 1737.66 751.568 1737 751.126C1736.35 750.695 1735.85 750.078 1735.5 749.275L1731.57 752.017L1731.57 748.978ZM1739.36 748.926C1740.04 748.926 1740.57 748.705 1740.93 748.262C1741.3 747.82 1741.49 747.174 1741.49 746.324V744.019H1737.22V746.324C1737.22 747.174 1737.41 747.82 1737.78 748.262C1738.16 748.705 1738.68 748.926 1739.36 748.926Z" fill="#2B2B2E"/>
<path d="M1743.79 754.031V756.86H1731.57L1731.57 754.031H1743.79Z" fill="#2B2B2E"/>
<path d="M1731.36 763.777C1731.36 762.811 1731.49 761.874 1731.74 760.966C1732.01 760.07 1732.35 759.348 1732.77 758.801L1734.9 759.761C1734.52 760.285 1734.21 760.908 1733.98 761.63C1733.74 762.351 1733.63 763.073 1733.63 763.795C1733.63 764.598 1733.74 765.192 1733.98 765.576C1734.22 765.96 1734.54 766.152 1734.94 766.152C1735.23 766.152 1735.47 766.036 1735.65 765.803C1735.85 765.582 1736.01 765.291 1736.12 764.93C1736.24 764.581 1736.37 764.103 1736.51 763.498C1736.73 762.567 1736.95 761.804 1737.17 761.21C1737.39 760.617 1737.75 760.104 1738.24 759.674C1738.73 759.255 1739.38 759.045 1740.19 759.045C1740.9 759.045 1741.54 759.237 1742.11 759.621C1742.7 760.005 1743.16 760.582 1743.49 761.35C1743.83 762.13 1744 763.079 1744 764.197C1744 764.977 1743.91 765.739 1743.72 766.484C1743.53 767.229 1743.27 767.881 1742.92 768.44L1740.77 767.567C1741.41 766.438 1741.73 765.308 1741.73 764.179C1741.73 763.387 1741.6 762.8 1741.35 762.415C1741.09 762.043 1740.75 761.857 1740.33 761.857C1739.91 761.857 1739.6 762.072 1739.39 762.503C1739.19 762.945 1738.99 763.614 1738.8 764.511C1738.58 765.442 1738.35 766.205 1738.13 766.799C1737.91 767.392 1737.56 767.899 1737.08 768.318C1736.61 768.749 1735.96 768.964 1735.15 768.964C1734.45 768.964 1733.81 768.766 1733.23 768.37C1732.66 767.986 1732.2 767.404 1731.86 766.624C1731.53 765.844 1731.36 764.895 1731.36 763.777Z" fill="#2B2B2E"/>
<path d="M1741.49 773.259V769.347H1743.79V779.999H1741.49V776.088H1731.57L1731.57 773.259H1741.49Z" fill="#2B2B2E"/>
<path d="M1731.57 424.124L1738.9 424.106L1732.86 420.509V419.234L1738.74 415.654L1731.57 415.654L1731.57 413L1743.79 413L1743.79 415.34L1736.19 419.915L1743.79 424.421V426.743L1731.57 426.778L1731.57 424.124Z" fill="#2B2B2E"/>
<path d="M1731.36 435.598C1731.36 434.329 1731.63 433.183 1732.18 432.158C1732.72 431.145 1733.48 430.348 1734.43 429.766C1735.4 429.195 1736.48 428.91 1737.68 428.91C1738.88 428.91 1739.95 429.195 1740.91 429.766C1741.88 430.348 1742.63 431.145 1743.18 432.158C1743.73 433.183 1744 434.329 1744 435.598C1744 436.867 1743.73 438.008 1743.18 439.021C1742.63 440.034 1741.88 440.831 1740.91 441.413C1739.95 441.996 1738.88 442.287 1737.68 442.287C1736.48 442.287 1735.4 441.996 1734.43 441.413C1733.48 440.831 1732.72 440.034 1732.18 439.021C1731.63 438.008 1731.36 436.867 1731.36 435.598ZM1733.77 435.598C1733.77 436.32 1733.93 436.972 1734.26 437.554C1734.59 438.136 1735.06 438.59 1735.65 438.916C1736.25 439.254 1736.92 439.423 1737.68 439.423C1738.44 439.423 1739.11 439.254 1739.7 438.916C1740.3 438.59 1740.76 438.136 1741.08 437.554C1741.42 436.972 1741.59 436.32 1741.59 435.598C1741.59 434.877 1741.42 434.225 1741.08 433.642C1740.76 433.06 1740.3 432.601 1739.7 432.263C1739.11 431.937 1738.44 431.774 1737.68 431.774C1736.92 431.774 1736.25 431.937 1735.65 432.263C1735.06 432.601 1734.59 433.06 1734.26 433.642C1733.93 434.225 1733.77 434.877 1733.77 435.598Z" fill="#2B2B2E"/>
<path d="M1743.79 444.413V449.966C1743.79 451.293 1743.53 452.463 1743.02 453.476C1742.52 454.5 1741.81 455.292 1740.89 455.851C1739.97 456.421 1738.9 456.707 1737.68 456.707C1736.46 456.707 1735.39 456.421 1734.47 455.851C1733.55 455.292 1732.83 454.5 1732.32 453.476C1731.82 452.463 1731.57 451.293 1731.57 449.966L1731.57 444.413H1743.79ZM1733.89 449.826C1733.89 451.049 1734.23 452.021 1734.9 452.743C1735.59 453.476 1736.51 453.843 1737.68 453.843C1738.84 453.843 1739.76 453.476 1740.44 452.743C1741.12 452.021 1741.47 451.049 1741.47 449.826V447.242H1733.89V449.826Z" fill="#2B2B2E"/>
<path d="M1733.84 468.305H1731.57L1731.57 458.84H1743.79L1743.79 468.078H1741.52V461.652H1738.87V467.327H1736.67V461.652H1733.84L1733.84 468.305Z" fill="#2B2B2E"/>
<path d="M1731.57 478.344L1734.97 475.987V473.385H1731.57L1731.57 470.556H1743.79V475.847C1743.79 476.93 1743.61 477.867 1743.25 478.659C1742.89 479.462 1742.38 480.079 1741.71 480.51C1741.05 480.94 1740.26 481.156 1739.36 481.156C1738.45 481.156 1737.66 480.935 1737 480.492C1736.35 480.062 1735.85 479.444 1735.5 478.641L1731.57 481.383L1731.57 478.344ZM1739.36 478.292C1740.04 478.292 1740.57 478.071 1740.93 477.628C1741.3 477.186 1741.49 476.54 1741.49 475.69V473.385H1737.22V475.69C1737.22 476.54 1737.41 477.186 1737.78 477.628C1738.16 478.071 1738.68 478.292 1739.36 478.292Z" fill="#2B2B2E"/>
<path d="M1734.19 491.448L1734.19 485.772L1731.57 484.689L1731.57 481.791L1743.79 487.239V490.033L1731.57 495.499L1731.57 492.53L1734.19 491.448ZM1736.33 490.557L1741.01 488.619L1736.33 486.68V490.557Z" fill="#2B2B2E"/>
<path d="M1741.49 498.685V494.774H1743.79V505.426H1741.49V501.514H1731.57L1731.57 498.685H1741.49Z" fill="#2B2B2E"/>
<path d="M1733.84 516.413H1731.57L1731.57 506.948H1743.79L1743.79 516.186H1741.52V509.76H1738.87L1738.87 515.435H1736.67L1736.67 509.76H1733.84L1733.84 516.413Z" fill="#2B2B2E"/>
<rect x="1700" y="332" width="7" height="266" rx="3.5" fill="#F0A3C8"/>
<rect x="1700" y="602" width="7" height="266" rx="3.5" fill="#B1B1B1"/>
<path d="M1734.19 150.657L1734.19 144.982L1731.57 143.899L1731.57 141L1743.79 146.448V149.242L1731.57 154.708L1731.57 151.74L1734.19 150.657ZM1736.33 149.766L1741.01 147.828L1736.33 145.89V149.766Z" fill="#2B2B2E"/>
<path d="M1731.36 161.152C1731.36 159.405 1731.84 158.043 1732.81 157.065C1733.77 156.099 1735.15 155.616 1736.95 155.616H1743.79V158.445H1737.05C1734.86 158.445 1733.77 159.353 1733.77 161.169C1733.77 162.054 1734.03 162.729 1734.55 163.195C1735.09 163.661 1735.92 163.893 1737.05 163.893H1743.79V166.687H1736.95C1735.15 166.687 1733.77 166.199 1732.81 165.221C1731.84 164.254 1731.36 162.898 1731.36 161.152Z" fill="#2B2B2E"/>
<path d="M1741.49 171.811V167.899H1743.79L1743.79 178.551H1741.49V174.639H1731.57L1731.57 171.811H1741.49Z" fill="#2B2B2E"/>
<path d="M1743.79 191.284H1731.57L1731.57 188.455H1736.58V182.902H1731.57L1731.57 180.073H1743.79V182.902H1738.97V188.455H1743.79V191.284Z" fill="#2B2B2E"/>
<path d="M1733.84 203.641H1731.57L1731.57 194.177H1743.79L1743.79 203.414H1741.52V196.988H1738.87V202.664H1736.67V196.988H1733.84L1733.84 203.641Z" fill="#2B2B2E"/>
<path d="M1743.79 217.104H1731.57L1731.57 214.781L1738.99 208.686H1731.57L1731.57 205.892H1743.79V208.232L1736.37 214.31H1743.79V217.104Z" fill="#2B2B2E"/>
<path d="M1741.49 222.528L1741.49 218.616H1743.79L1743.79 229.269H1741.49V225.357H1731.57L1731.57 222.528H1741.49Z" fill="#2B2B2E"/>
<path d="M1743.79 230.791V233.62H1731.57L1731.57 230.791H1743.79Z" fill="#2B2B2E"/>
<path d="M1731.36 242.371C1731.36 241.125 1731.62 239.996 1732.16 238.983C1732.71 237.982 1733.46 237.19 1734.41 236.608C1735.38 236.038 1736.47 235.752 1737.68 235.752C1738.89 235.752 1739.97 236.038 1740.93 236.608C1741.89 237.19 1742.64 237.982 1743.18 238.983C1743.73 239.996 1744 241.131 1744 242.388C1744 243.448 1743.81 244.402 1743.44 245.252C1743.07 246.114 1742.53 246.835 1741.83 247.418L1740.16 245.601C1741.11 244.775 1741.59 243.75 1741.59 242.528C1741.59 241.771 1741.42 241.096 1741.08 240.502C1740.76 239.908 1740.3 239.443 1739.7 239.105C1739.11 238.779 1738.44 238.616 1737.68 238.616C1736.92 238.616 1736.25 238.779 1735.65 239.105C1735.06 239.443 1734.59 239.908 1734.26 240.502C1733.93 241.096 1733.77 241.771 1733.77 242.528C1733.77 243.75 1734.25 244.775 1735.22 245.601L1733.54 247.418C1732.83 246.835 1732.29 246.114 1731.92 245.252C1731.54 244.391 1731.36 243.43 1731.36 242.371Z" fill="#2B2B2E"/>
<path d="M12.6431 773.381C12.6431 774.626 12.3754 775.756 11.8398 776.769C11.2927 777.77 10.5418 778.561 9.58711 779.144C8.62084 779.714 7.53232 779.999 6.32156 779.999C5.1108 779.999 4.0281 779.714 3.07346 779.144C2.10719 778.561 1.35628 777.77 0.820754 776.769C0.273585 775.756 -5.49595e-08 774.621 0 773.363C4.63085e-08 772.304 0.186271 771.349 0.558812 770.499C0.931353 769.638 1.46688 768.916 2.1654 768.334L3.84183 770.15C2.88719 770.977 2.40988 772.001 2.40988 773.224C2.40988 773.98 2.57868 774.656 2.9163 775.249C3.24227 775.843 3.70213 776.309 4.29586 776.646C4.8896 776.972 5.56483 777.135 6.32156 777.135C7.07828 777.135 7.75351 776.972 8.34725 776.646C8.94099 776.309 9.40666 775.843 9.74428 775.249C10.0703 774.656 10.2332 773.98 10.2332 773.224C10.2332 772.001 9.7501 770.977 8.78382 770.15L10.4603 768.334C11.1704 768.916 11.7118 769.638 12.0843 770.499C12.4568 771.361 12.6431 772.321 12.6431 773.381Z" fill="#2B2B2E"/>
<path d="M10.1634 756.959H12.4336L12.4336 766.424H0.209554L0.209554 757.186L2.47973 757.186L2.47973 763.612H5.13408V757.937H7.3344V763.612H10.1634V756.959Z" fill="#2B2B2E"/>
<path d="M0.209555 743.497H12.4336V745.819L5.01184 751.914H12.4336V754.708H0.209555L0.209555 752.368L7.63127 746.291H0.209555L0.209555 743.497Z" fill="#2B2B2E"/>
<path d="M2.51465 738.072L2.51465 741.984H0.209555L0.209556 731.332H2.51465L2.51465 735.243H12.4336L12.4336 738.072L2.51465 738.072Z" fill="#2B2B2E"/>
<path d="M12.4336 722.021L9.0283 724.379V726.981H12.4336V729.81H0.209556L0.209556 724.518C0.209556 723.436 0.390006 722.498 0.750905 721.707C1.1118 720.904 1.62405 720.287 2.28764 719.856C2.95123 719.425 3.73706 719.21 4.64512 719.21C5.55319 719.21 6.33902 719.431 7.00261 719.873C7.65456 720.304 8.15516 720.921 8.50442 721.724L12.4336 718.983V722.021ZM4.64512 722.074C3.95825 722.074 3.43437 722.295 3.07347 722.737C2.70093 723.18 2.51465 723.826 2.51465 724.676V726.981H6.77559V724.676C6.77559 723.826 6.58932 723.18 6.21678 722.737C5.84424 722.295 5.32036 722.074 4.64512 722.074Z" fill="#2B2B2E"/>
<path d="M0.209556 716.968L0.209556 714.139L12.4336 714.139V716.968H0.209556Z" fill="#2B2B2E"/>
<path d="M12.6431 707.222C12.6431 708.188 12.5151 709.125 12.2589 710.033C11.9912 710.93 11.6477 711.652 11.2286 712.199L9.09816 711.238C9.48234 710.714 9.79085 710.092 10.0237 709.37C10.2565 708.648 10.3729 707.926 10.3729 707.204C10.3729 706.401 10.2565 705.807 10.0237 705.423C9.77921 705.039 9.45906 704.847 9.06323 704.847C8.77218 704.847 8.53352 704.963 8.34725 705.196C8.14934 705.417 7.99217 705.708 7.87576 706.069C7.75934 706.418 7.63128 706.896 7.49157 707.501C7.27038 708.433 7.04918 709.195 6.82798 709.789C6.60679 710.383 6.25171 710.895 5.76275 711.326C5.27379 711.745 4.62184 711.954 3.80691 711.954C3.09675 711.954 2.45645 711.762 1.88599 711.378C1.3039 710.994 0.844041 710.417 0.506426 709.649C0.16881 708.869 2.86061e-06 707.92 2.90946e-06 706.803C2.94355e-06 706.023 0.0931381 705.26 0.279408 704.515C0.465679 703.77 0.733443 703.118 1.0827 702.559L3.23063 703.432C2.59033 704.562 2.27018 705.691 2.27018 706.82C2.27018 707.612 2.39824 708.2 2.65436 708.584C2.91048 708.956 3.2481 709.143 3.6672 709.143C4.08631 709.143 4.40064 708.927 4.6102 708.497C4.80811 708.054 5.00602 707.385 5.20394 706.488C5.42513 705.557 5.64633 704.794 5.86753 704.201C6.08872 703.607 6.43798 703.101 6.9153 702.681C7.39262 702.251 8.03874 702.035 8.85368 702.035C9.55219 702.035 10.1925 702.233 10.7746 702.629C11.345 703.013 11.7991 703.595 12.1367 704.375C12.4743 705.155 12.6431 706.104 12.6431 707.222Z" fill="#2B2B2E"/>
<path d="M2.51466 697.741L2.51466 701.652H0.209557L0.209557 691L2.51466 691L2.51466 694.912L12.4336 694.912V697.741L2.51466 697.741Z" fill="#2B2B2E"/>
<path d="M12.4336 505.289L5.09916 505.307L11.1413 508.904V510.179L5.25632 513.759H12.4336V516.413H0.209553L0.209553 514.073L7.8059 509.498L0.209553 504.992L0.209553 502.67L12.4336 502.635V505.289Z" fill="#2B2B2E"/>
<path d="M12.6431 493.815C12.6431 495.084 12.3695 496.231 11.8224 497.255C11.2752 498.268 10.5243 499.065 9.56965 499.647C8.60337 500.218 7.52067 500.503 6.32156 500.503C5.12244 500.503 4.04556 500.218 3.09093 499.647C2.12465 499.065 1.36792 498.268 0.820754 497.255C0.273585 496.231 -5.54684e-08 495.084 0 493.815C5.54684e-08 492.546 0.273585 491.405 0.820755 490.392C1.36792 489.379 2.12465 488.582 3.09093 488C4.04556 487.418 5.12244 487.127 6.32156 487.127C7.52067 487.127 8.60337 487.418 9.56965 488C10.5243 488.582 11.2752 489.379 11.8224 490.392C12.3695 491.405 12.6431 492.546 12.6431 493.815ZM10.2332 493.815C10.2332 493.093 10.0703 492.441 9.74428 491.859C9.40666 491.277 8.94099 490.823 8.34725 490.497C7.75351 490.159 7.07828 489.99 6.32156 489.99C5.56483 489.99 4.8896 490.159 4.29586 490.497C3.70213 490.823 3.24227 491.277 2.9163 491.859C2.57868 492.441 2.40988 493.093 2.40988 493.815C2.40988 494.537 2.57868 495.189 2.9163 495.771C3.24227 496.353 3.70213 496.813 4.29586 497.15C4.8896 497.476 5.56483 497.639 6.32156 497.639C7.07828 497.639 7.75351 497.476 8.34725 497.15C8.94099 496.813 9.40666 496.353 9.74428 495.771C10.0703 495.189 10.2332 494.537 10.2332 493.815Z" fill="#2B2B2E"/>
<path d="M0.209554 485L0.209554 479.447C0.209554 478.12 0.465677 476.95 0.977921 475.937C1.47852 474.913 2.18868 474.121 3.10839 473.562C4.0281 472.992 5.09916 472.707 6.32156 472.707C7.54396 472.707 8.61501 472.992 9.53472 473.562C10.4544 474.121 11.1704 474.913 11.6827 475.937C12.1833 476.95 12.4336 478.12 12.4336 479.447L12.4336 485H0.209554ZM10.111 479.587C10.111 478.365 9.77338 477.392 9.09815 476.671C8.41128 475.937 7.48575 475.57 6.32156 475.57C5.15737 475.57 4.23766 475.937 3.56242 476.671C2.87555 477.392 2.53212 478.365 2.53212 479.587V482.171H10.111V479.587Z" fill="#2B2B2E"/>
<path d="M10.1634 461.108H12.4336V470.573H0.209555L0.209555 461.335H2.47973L2.47973 467.762H5.13408L5.13408 462.086H7.3344L7.3344 467.762H10.1634V461.108Z" fill="#2B2B2E"/>
<path d="M12.4336 451.069L9.0283 453.426V456.028L12.4336 456.028L12.4336 458.857H0.209555L0.209556 453.566C0.209556 452.483 0.390005 451.546 0.750905 450.754C1.1118 449.951 1.62405 449.334 2.28764 448.903C2.95123 448.473 3.73705 448.257 4.64512 448.257C5.55319 448.257 6.33902 448.478 7.00261 448.921C7.65456 449.352 8.15516 449.969 8.50442 450.772L12.4336 448.03V451.069ZM4.64512 451.121C3.95825 451.121 3.43437 451.342 3.07347 451.785C2.70092 452.227 2.51465 452.873 2.51465 453.723L2.51465 456.028H6.77559V453.723C6.77559 452.873 6.58932 452.227 6.21678 451.785C5.84424 451.342 5.32035 451.121 4.64512 451.121Z" fill="#2B2B2E"/>
<path d="M9.81413 437.966V443.641L12.4336 444.724V447.622L0.209556 442.174L0.209556 439.38L12.4336 433.914L12.4336 436.883L9.81413 437.966ZM7.6662 438.856L2.98615 440.794L7.6662 442.733L7.6662 438.856Z" fill="#2B2B2E"/>
<path d="M2.51466 430.728L2.51465 434.639H0.209556L0.209557 423.987H2.51466L2.51466 427.899L12.4336 427.899V430.728H2.51466Z" fill="#2B2B2E"/>
<path d="M10.1634 413L12.4336 413V422.465H0.209557L0.209557 413.227L2.47973 413.227L2.47973 419.653L5.13409 419.653L5.13409 413.978L7.33441 413.978L7.33441 419.653H10.1634V413Z" fill="#2B2B2E"/>
<path d="M9.81413 237.761L9.81412 243.436L12.4336 244.519V247.418L0.20955 241.969L0.20955 239.175L12.4336 233.709V236.678L9.81413 237.761ZM7.66619 238.651L2.98615 240.59L7.66619 242.528V238.651Z" fill="#2B2B2E"/>
<path d="M12.6431 227.266C12.6431 229.012 12.16 230.374 11.1937 231.352C10.2274 232.318 8.84785 232.801 7.05499 232.801H0.20955L0.20955 229.973H6.95022C9.1389 229.973 10.2332 229.064 10.2332 227.248C10.2332 226.364 9.97129 225.688 9.44741 225.223C8.91188 224.757 8.07948 224.524 6.95022 224.524H0.20955L0.20955 221.73H7.05499C8.84785 221.73 10.2274 222.219 11.1937 223.197C12.16 224.163 12.6431 225.519 12.6431 227.266Z" fill="#2B2B2E"/>
<path d="M2.51465 216.607L2.51465 220.519H0.20955L0.209551 209.866H2.51465V213.778H12.4336V216.607H2.51465Z" fill="#2B2B2E"/>
<path d="M0.209552 197.133L12.4336 197.133V199.962H7.42171V205.515H12.4336L12.4336 208.344H0.209551L0.209551 205.515L5.0293 205.515V199.962H0.209551L0.209552 197.133Z" fill="#2B2B2E"/>
<path d="M10.1634 184.776H12.4336V194.241H0.209552L0.209552 185.003H2.47972L2.47972 191.429H5.13408L5.13408 185.754H7.3344L7.3344 191.429H10.1634V184.776Z" fill="#2B2B2E"/>
<path d="M0.209553 171.314H12.4336V173.636L5.01184 179.731H12.4336L12.4336 182.525H0.209552L0.209552 180.185L7.63127 174.108L0.209553 174.108L0.209553 171.314Z" fill="#2B2B2E"/>
<path d="M2.51465 165.89L2.51465 169.801H0.209553L0.209553 159.149L2.51465 159.149L2.51465 163.061H12.4336V165.89H2.51465Z" fill="#2B2B2E"/>
<path d="M0.209553 157.627L0.209553 154.798H12.4336V157.627H0.209553Z" fill="#2B2B2E"/>
<path d="M12.6431 146.047C12.6431 147.292 12.3753 148.422 11.8398 149.435C11.2927 150.436 10.5417 151.227 9.58711 151.81C8.62083 152.38 7.53231 152.665 6.32156 152.665C5.1108 152.665 4.0281 152.38 3.07346 151.81C2.10719 151.227 1.35628 150.436 0.820754 149.435C0.273585 148.422 -5.49595e-08 147.287 0 146.029C4.63085e-08 144.97 0.186271 144.015 0.558812 143.165C0.931353 142.304 1.46688 141.582 2.1654 141L3.84183 142.816C2.88719 143.643 2.40988 144.667 2.40988 145.89C2.40988 146.646 2.57868 147.322 2.9163 147.915C3.24227 148.509 3.70213 148.975 4.29586 149.312C4.8896 149.638 5.56483 149.801 6.32156 149.801C7.07828 149.801 7.75351 149.638 8.34725 149.312C8.94099 148.975 9.40666 148.509 9.74428 147.915C10.0703 147.322 10.2332 146.646 10.2332 145.89C10.2332 144.667 9.7501 143.643 8.78382 142.816L10.4603 141C11.1704 141.582 11.7118 142.304 12.0843 143.165C12.4568 144.027 12.6431 144.987 12.6431 146.047Z" fill="#2B2B2E"/>
</svg>
