<svg width="1715" height="929" viewBox="0 0 1715 929" fill="none" xmlns="http://www.w3.org/2000/svg">
<rect x="1671.68" y="68.1929" width="6.59894" height="259.558" rx="3.29947" fill="#E84C52"/>
<rect x="1671.68" y="332.139" width="6.59894" height="259.558" rx="3.29947" fill="#FFBFC2"/>
<rect x="1671.68" y="596.102" width="6.59894" height="259.558" rx="3.29947" fill="#B1B1B1"/>
<path d="M115.415 6.3794H118.274V23.9084H129.109V26.3962H115.415V6.3794Z" fill="#2B2B2E"/>
<path d="M145.489 18.9042C145.489 19.1139 145.47 19.3903 145.432 19.7335H133.138C133.31 21.0679 133.891 22.145 134.882 22.9647C135.892 23.7654 137.141 24.1657 138.627 24.1657C140.438 24.1657 141.896 23.5557 143.002 22.3356L144.517 24.1086C143.831 24.9092 142.973 25.5193 141.944 25.9387C140.934 26.3581 139.8 26.5678 138.542 26.5678C136.941 26.5678 135.521 26.2437 134.282 25.5955C133.043 24.9283 132.08 24.0037 131.394 22.8218C130.727 21.6398 130.393 20.3054 130.393 18.8184C130.393 17.3505 130.717 16.0256 131.366 14.8436C132.033 13.6617 132.938 12.7466 134.082 12.0985C135.244 11.4313 136.55 11.0976 137.998 11.0976C139.447 11.0976 140.734 11.4313 141.858 12.0985C143.002 12.7466 143.888 13.6617 144.517 14.8436C145.165 16.0256 145.489 17.3791 145.489 18.9042ZM137.998 13.4139C136.683 13.4139 135.578 13.8142 134.682 14.6149C133.805 15.4155 133.291 16.464 133.138 17.7604H142.859C142.706 16.4831 142.182 15.4441 141.286 14.6435C140.41 13.8237 139.314 13.4139 137.998 13.4139Z" fill="#2B2B2E"/>
<path d="M154.847 7.26585C153.208 7.26585 152.388 8.15231 152.388 9.92523V11.2406H156.791V13.4997H152.445V26.3962H149.701V13.4997H147.127V11.2406H149.701V9.89663C149.701 8.39061 150.139 7.19913 151.016 6.32221C151.893 5.44528 153.122 5.00682 154.704 5.00682C155.314 5.00682 155.886 5.08307 156.419 5.23558C156.953 5.38809 157.41 5.60732 157.792 5.89328L156.963 7.98074C156.334 7.50415 155.628 7.26585 154.847 7.26585Z" fill="#2B2B2E"/>
<path d="M167.899 25.5097C167.499 25.8529 167.004 26.1198 166.413 26.3104C165.822 26.482 165.212 26.5678 164.583 26.5678C163.058 26.5678 161.876 26.1579 161.038 25.3382C160.199 24.5184 159.78 23.346 159.78 21.8209V13.4997H157.207V11.2406H159.78V7.92355H162.525V11.2406H166.87V13.4997H162.525V21.7065C162.525 22.5263 162.725 23.1554 163.125 23.5938C163.544 24.0323 164.135 24.2515 164.898 24.2515C165.736 24.2515 166.451 24.0132 167.042 23.5366L167.899 25.5097Z" fill="#2B2B2E"/>
<path d="M177.924 17.36H185.615V19.7335H177.924V17.36Z" fill="#2B2B2E"/>
<path d="M197.919 6.3794H200.778V23.9084H211.614V26.3962H197.919V6.3794Z" fill="#2B2B2E"/>
<path d="M214.494 11.2406H217.239V26.3962H214.494V11.2406ZM215.866 8.32388C215.333 8.32388 214.885 8.15231 214.523 7.80917C214.18 7.46602 214.008 7.04662 214.008 6.55097C214.008 6.05532 214.18 5.63592 214.523 5.29277C214.885 4.93056 215.333 4.74946 215.866 4.74946C216.4 4.74946 216.839 4.92103 217.182 5.26418C217.544 5.58826 217.725 5.99812 217.725 6.49378C217.725 7.0085 217.544 7.44696 217.182 7.80917C216.839 8.15231 216.4 8.32388 215.866 8.32388Z" fill="#2B2B2E"/>
<path d="M230.513 11.0976C231.981 11.0976 233.296 11.4217 234.459 12.0699C235.621 12.718 236.527 13.6236 237.175 14.7864C237.842 15.9493 238.175 17.2933 238.175 18.8184C238.175 20.3435 237.842 21.697 237.175 22.879C236.527 24.0418 235.621 24.9474 234.459 25.5955C233.296 26.2437 231.981 26.5678 230.513 26.5678C229.389 26.5678 228.359 26.3485 227.425 25.9101C226.492 25.4716 225.72 24.833 225.11 23.9942V26.3962H222.479V5.17839H225.224V13.5282C225.834 12.7276 226.596 12.1271 227.511 11.7267C228.426 11.3073 229.427 11.0976 230.513 11.0976ZM230.285 24.1657C231.257 24.1657 232.124 23.9465 232.886 23.508C233.668 23.0505 234.278 22.4214 234.716 21.6208C235.173 20.801 235.402 19.8669 235.402 18.8184C235.402 17.7699 235.173 16.8453 234.716 16.0446C234.278 15.2249 233.668 14.5958 232.886 14.1573C232.124 13.7189 231.257 13.4997 230.285 13.4997C229.331 13.4997 228.464 13.7189 227.683 14.1573C226.901 14.5958 226.291 15.2249 225.853 16.0446C225.415 16.8453 225.195 17.7699 225.195 18.8184C225.195 19.8669 225.415 20.801 225.853 21.6208C226.291 22.4214 226.901 23.0505 227.683 23.508C228.464 23.9465 229.331 24.1657 230.285 24.1657Z" fill="#2B2B2E"/>
<path d="M255.662 18.9042C255.662 19.1139 255.643 19.3903 255.605 19.7335H243.311C243.483 21.0679 244.064 22.145 245.055 22.9647C246.066 23.7654 247.314 24.1657 248.801 24.1657C250.611 24.1657 252.07 23.5557 253.175 22.3356L254.69 24.1086C254.004 24.9092 253.146 25.5193 252.117 25.9387C251.107 26.3581 249.973 26.5678 248.715 26.5678C247.114 26.5678 245.694 26.2437 244.455 25.5955C243.216 24.9283 242.254 24.0037 241.567 22.8218C240.9 21.6398 240.567 20.3054 240.567 18.8184C240.567 17.3505 240.891 16.0256 241.539 14.8436C242.206 13.6617 243.111 12.7466 244.255 12.0985C245.418 11.4313 246.723 11.0976 248.172 11.0976C249.62 11.0976 250.907 11.4313 252.031 12.0985C253.175 12.7466 254.061 13.6617 254.69 14.8436C255.338 16.0256 255.662 17.3791 255.662 18.9042ZM248.172 13.4139C246.857 13.4139 245.751 13.8142 244.855 14.6149C243.979 15.4155 243.464 16.464 243.311 17.7604H253.032C252.88 16.4831 252.355 15.4441 251.46 14.6435C250.583 13.8237 249.487 13.4139 248.172 13.4139Z" fill="#2B2B2E"/>
<path d="M262.104 13.7856C262.58 12.9087 263.286 12.2415 264.22 11.7839C265.154 11.3264 266.288 11.0976 267.622 11.0976V13.757C267.469 13.7379 267.26 13.7284 266.993 13.7284C265.506 13.7284 264.334 14.1764 263.476 15.0724C262.638 15.9493 262.218 17.2075 262.218 18.847V26.3962H259.474V11.2406H262.104V13.7856Z" fill="#2B2B2E"/>
<path d="M276.495 11.0976C278.591 11.0976 280.192 11.6124 281.298 12.6418C282.422 13.6712 282.985 15.2058 282.985 17.2457V26.3962H280.383V24.3945C279.926 25.0999 279.268 25.6432 278.41 26.0244C277.572 26.3867 276.571 26.5678 275.408 26.5678C273.712 26.5678 272.349 26.1579 271.32 25.3382C270.31 24.5184 269.805 23.4413 269.805 22.1069C269.805 20.7724 270.291 19.7049 271.263 18.9042C272.235 18.0845 273.779 17.6746 275.894 17.6746H280.24V17.1313C280.24 15.9493 279.897 15.0438 279.211 14.4147C278.525 13.7856 277.514 13.4711 276.18 13.4711C275.284 13.4711 274.408 13.6236 273.55 13.9286C272.692 14.2145 271.968 14.6053 271.377 15.101L270.233 13.0421C271.015 12.413 271.949 11.9364 273.035 11.6124C274.122 11.2692 275.275 11.0976 276.495 11.0976ZM275.866 24.4517C276.914 24.4517 277.819 24.2229 278.582 23.7654C279.344 23.2888 279.897 22.6216 280.24 21.7637V19.6477H276.009C273.683 19.6477 272.521 20.4293 272.521 21.9925C272.521 22.755 272.816 23.3555 273.407 23.794C273.998 24.2325 274.817 24.4517 275.866 24.4517Z" fill="#2B2B2E"/>
<path d="M288.064 5.17839H290.809V26.3962H288.064V5.17839Z" fill="#2B2B2E"/>
<path d="M302.082 2.31885H304.569L295.134 29.2557H292.647L302.082 2.31885Z" fill="#2B2B2E"/>
<path d="M314.306 6.3794C316.898 6.3794 318.938 6.99896 320.424 8.2381C321.911 9.47723 322.654 11.1834 322.654 13.3567C322.654 15.5299 321.911 17.2361 320.424 18.4753C318.938 19.7144 316.898 20.334 314.306 20.334H309.36V26.3962H306.501V6.3794H314.306ZM314.22 17.8462C316.031 17.8462 317.413 17.4649 318.366 16.7023C319.319 15.9207 319.795 14.8055 319.795 13.3567C319.795 11.9078 319.319 10.8022 318.366 10.0396C317.413 9.258 316.031 8.8672 314.22 8.8672H309.36V17.8462H314.22Z" fill="#2B2B2E"/>
<path d="M328.833 13.7856C329.31 12.9087 330.015 12.2415 330.949 11.7839C331.883 11.3264 333.017 11.0976 334.351 11.0976V13.757C334.199 13.7379 333.989 13.7284 333.722 13.7284C332.236 13.7284 331.063 14.1764 330.206 15.0724C329.367 15.9493 328.948 17.2075 328.948 18.847V26.3962H326.203V11.2406H328.833V13.7856Z" fill="#2B2B2E"/>
<path d="M344.085 26.5678C342.579 26.5678 341.226 26.2341 340.025 25.5669C338.824 24.8997 337.88 23.9846 337.194 22.8218C336.527 21.6398 336.194 20.3054 336.194 18.8184C336.194 17.3314 336.527 16.0065 337.194 14.8436C337.88 13.6617 338.824 12.7466 340.025 12.0985C341.226 11.4313 342.579 11.0976 344.085 11.0976C345.59 11.0976 346.934 11.4313 348.116 12.0985C349.317 12.7466 350.251 13.6617 350.918 14.8436C351.604 16.0065 351.947 17.3314 351.947 18.8184C351.947 20.3054 351.604 21.6398 350.918 22.8218C350.251 23.9846 349.317 24.8997 348.116 25.5669C346.934 26.2341 345.59 26.5678 344.085 26.5678ZM344.085 24.1657C345.057 24.1657 345.924 23.9465 346.686 23.508C347.468 23.0505 348.078 22.4214 348.516 21.6208C348.954 20.801 349.174 19.8669 349.174 18.8184C349.174 17.7699 348.954 16.8453 348.516 16.0446C348.078 15.2249 347.468 14.5958 346.686 14.1573C345.924 13.7189 345.057 13.4997 344.085 13.4997C343.112 13.4997 342.236 13.7189 341.454 14.1573C340.692 14.5958 340.082 15.2249 339.624 16.0446C339.186 16.8453 338.967 17.7699 338.967 18.8184C338.967 19.8669 339.186 20.801 339.624 21.6208C340.082 22.4214 340.692 23.0505 341.454 23.508C342.236 23.9465 343.112 24.1657 344.085 24.1657Z" fill="#2B2B2E"/>
<path d="M370.238 11.2406V24.3373C370.238 26.9872 369.58 28.9412 368.265 30.1994C366.95 31.4766 364.987 32.1153 362.376 32.1153C360.946 32.1153 359.583 31.9151 358.287 31.5148C356.991 31.1335 355.943 30.5806 355.142 29.8562L356.457 27.7402C357.163 28.3502 358.03 28.8268 359.059 29.1699C360.107 29.5321 361.184 29.7133 362.29 29.7133C364.062 29.7133 365.368 29.2939 366.207 28.4551C367.064 27.6163 367.493 26.339 367.493 24.6233V23.4223C366.845 24.2039 366.045 24.7948 365.092 25.1952C364.158 25.5764 363.138 25.7671 362.033 25.7671C360.584 25.7671 359.269 25.4621 358.087 24.852C356.924 24.2229 356.01 23.3555 355.342 22.2499C354.675 21.1251 354.342 19.8478 354.342 18.4181C354.342 16.9883 354.675 15.7206 355.342 14.6149C356.01 13.4901 356.924 12.6227 358.087 12.0127C359.269 11.4027 360.584 11.0976 362.033 11.0976C363.176 11.0976 364.234 11.3073 365.206 11.7267C366.197 12.1461 367.007 12.7657 367.636 13.5854V11.2406H370.238ZM362.347 23.3651C363.338 23.3651 364.225 23.1554 365.006 22.736C365.807 22.3166 366.426 21.7351 366.864 20.9917C367.322 20.2291 367.551 19.3712 367.551 18.4181C367.551 16.9502 367.064 15.7682 366.092 14.8722C365.12 13.9572 363.872 13.4997 362.347 13.4997C360.803 13.4997 359.545 13.9572 358.573 14.8722C357.601 15.7682 357.115 16.9502 357.115 18.4181C357.115 19.3712 357.334 20.2291 357.773 20.9917C358.23 21.7351 358.85 22.3166 359.631 22.736C360.432 23.1554 361.337 23.3651 362.347 23.3651Z" fill="#2B2B2E"/>
<path d="M378.113 13.7856C378.589 12.9087 379.294 12.2415 380.228 11.7839C381.162 11.3264 382.296 11.0976 383.631 11.0976V13.757C383.478 13.7379 383.268 13.7284 383.002 13.7284C381.515 13.7284 380.343 14.1764 379.485 15.0724C378.646 15.9493 378.227 17.2075 378.227 18.847V26.3962H375.482V11.2406H378.113V13.7856Z" fill="#2B2B2E"/>
<path d="M400.569 18.9042C400.569 19.1139 400.549 19.3903 400.511 19.7335H388.218C388.389 21.0679 388.97 22.145 389.962 22.9647C390.972 23.7654 392.22 24.1657 393.707 24.1657C395.518 24.1657 396.976 23.5557 398.081 22.3356L399.596 24.1086C398.91 24.9092 398.053 25.5193 397.023 25.9387C396.013 26.3581 394.879 26.5678 393.621 26.5678C392.02 26.5678 390.6 26.2437 389.361 25.5955C388.122 24.9283 387.16 24.0037 386.474 22.8218C385.806 21.6398 385.473 20.3054 385.473 18.8184C385.473 17.3505 385.797 16.0256 386.445 14.8436C387.112 13.6617 388.017 12.7466 389.161 12.0985C390.324 11.4313 391.629 11.0976 393.078 11.0976C394.526 11.0976 395.813 11.4313 396.938 12.0985C398.081 12.7466 398.967 13.6617 399.596 14.8436C400.245 16.0256 400.569 17.3791 400.569 18.9042ZM393.078 13.4139C391.763 13.4139 390.657 13.8142 389.761 14.6149C388.885 15.4155 388.37 16.464 388.218 17.7604H397.938C397.786 16.4831 397.262 15.4441 396.366 14.6435C395.489 13.8237 394.393 13.4139 393.078 13.4139Z" fill="#2B2B2E"/>
<path d="M408.726 26.5678C407.487 26.5678 406.295 26.4057 405.152 26.0816C404.008 25.7385 403.112 25.3096 402.464 24.7948L403.608 22.6216C404.275 23.0982 405.085 23.4795 406.038 23.7654C406.991 24.0514 407.954 24.1943 408.926 24.1943C411.327 24.1943 412.528 23.508 412.528 22.1355C412.528 21.6779 412.366 21.3157 412.042 21.0488C411.718 20.782 411.308 20.5913 410.813 20.4769C410.336 20.3435 409.65 20.2005 408.754 20.048C407.534 19.8574 406.534 19.6381 405.752 19.3903C404.99 19.1425 404.332 18.7231 403.779 18.1321C403.227 17.5411 402.95 16.7119 402.95 15.6443C402.95 14.2717 403.522 13.1756 404.666 12.3558C405.809 11.517 407.344 11.0976 409.269 11.0976C410.279 11.0976 411.289 11.2216 412.299 11.4694C413.31 11.7172 414.139 12.0508 414.787 12.4702L413.614 14.6435C412.376 13.8428 410.917 13.4425 409.24 13.4425C408.077 13.4425 407.191 13.6331 406.581 14.0144C405.971 14.3956 405.666 14.9008 405.666 15.5299C405.666 16.0256 405.838 16.4164 406.181 16.7023C406.524 16.9883 406.943 17.198 407.439 17.3314C407.954 17.4649 408.668 17.6174 409.583 17.789C410.803 17.9987 411.785 18.2274 412.528 18.4753C413.29 18.704 413.939 19.1044 414.472 19.6763C415.006 20.2482 415.273 21.0488 415.273 22.0783C415.273 23.4509 414.682 24.547 413.5 25.3668C412.337 26.1674 410.746 26.5678 408.726 26.5678Z" fill="#2B2B2E"/>
<path d="M423.049 26.5678C421.81 26.5678 420.618 26.4057 419.475 26.0816C418.331 25.7385 417.435 25.3096 416.787 24.7948L417.931 22.6216C418.598 23.0982 419.408 23.4795 420.361 23.7654C421.314 24.0514 422.277 24.1943 423.249 24.1943C425.65 24.1943 426.851 23.508 426.851 22.1355C426.851 21.6779 426.689 21.3157 426.365 21.0488C426.041 20.782 425.631 20.5913 425.136 20.4769C424.659 20.3435 423.973 20.2005 423.077 20.048C421.857 19.8574 420.857 19.6381 420.075 19.3903C419.313 19.1425 418.655 18.7231 418.102 18.1321C417.55 17.5411 417.273 16.7119 417.273 15.6443C417.273 14.2717 417.845 13.1756 418.989 12.3558C420.132 11.517 421.667 11.0976 423.592 11.0976C424.602 11.0976 425.612 11.2216 426.622 11.4694C427.633 11.7172 428.462 12.0508 429.11 12.4702L427.938 14.6435C426.699 13.8428 425.241 13.4425 423.563 13.4425C422.401 13.4425 421.514 13.6331 420.904 14.0144C420.294 14.3956 419.989 14.9008 419.989 15.5299C419.989 16.0256 420.161 16.4164 420.504 16.7023C420.847 16.9883 421.266 17.198 421.762 17.3314C422.277 17.4649 422.991 17.6174 423.906 17.789C425.126 17.9987 426.108 18.2274 426.851 18.4753C427.614 18.704 428.262 19.1044 428.795 19.6763C429.329 20.2482 429.596 21.0488 429.596 22.0783C429.596 23.4509 429.005 24.547 427.823 25.3668C426.661 26.1674 425.069 26.5678 423.049 26.5678Z" fill="#2B2B2E"/>
<path d="M433.026 11.2406H435.771V26.3962H433.026V11.2406ZM434.398 8.32388C433.865 8.32388 433.417 8.15231 433.055 7.80917C432.711 7.46602 432.54 7.04662 432.54 6.55097C432.54 6.05532 432.711 5.63592 433.055 5.29277C433.417 4.93056 433.865 4.74946 434.398 4.74946C434.932 4.74946 435.37 4.92103 435.713 5.26418C436.076 5.58826 436.257 5.99812 436.257 6.49378C436.257 7.0085 436.076 7.44696 435.713 7.80917C435.37 8.15231 434.932 8.32388 434.398 8.32388Z" fill="#2B2B2E"/>
<path d="M454.42 11.2406L447.787 26.3962H444.985L438.352 11.2406H441.211L446.415 23.3937L451.733 11.2406H454.42Z" fill="#2B2B2E"/>
<path d="M470.258 18.9042C470.258 19.1139 470.238 19.3903 470.2 19.7335H457.906C458.078 21.0679 458.659 22.145 459.651 22.9647C460.661 23.7654 461.909 24.1657 463.396 24.1657C465.207 24.1657 466.665 23.5557 467.77 22.3356L469.285 24.1086C468.599 24.9092 467.742 25.5193 466.712 25.9387C465.702 26.3581 464.568 26.5678 463.31 26.5678C461.709 26.5678 460.289 26.2437 459.05 25.5955C457.811 24.9283 456.849 24.0037 456.162 22.8218C455.495 21.6398 455.162 20.3054 455.162 18.8184C455.162 17.3505 455.486 16.0256 456.134 14.8436C456.801 13.6617 457.706 12.7466 458.85 12.0985C460.013 11.4313 461.318 11.0976 462.767 11.0976C464.215 11.0976 465.502 11.4313 466.627 12.0985C467.77 12.7466 468.656 13.6617 469.285 14.8436C469.934 16.0256 470.258 17.3791 470.258 18.9042ZM462.767 13.4139C461.452 13.4139 460.346 13.8142 459.45 14.6149C458.574 15.4155 458.059 16.464 457.906 17.7604H467.627C467.475 16.4831 466.951 15.4441 466.055 14.6435C465.178 13.8237 464.082 13.4139 462.767 13.4139Z" fill="#2B2B2E"/>
<path d="M1369.17 26.4021L1364.86 20.2541C1364.32 20.2922 1363.9 20.3113 1363.6 20.3113H1358.65V26.4021H1355.79V6.38531H1363.6C1366.19 6.38531 1368.23 7.00488 1369.72 8.24401C1371.2 9.48315 1371.95 11.1893 1371.95 13.3626C1371.95 14.9067 1371.56 16.2221 1370.8 17.3088C1370.04 18.3954 1368.95 19.1865 1367.54 19.6822L1372.29 26.4021H1369.17ZM1363.51 17.8807C1365.32 17.8807 1366.7 17.4899 1367.66 16.7083C1368.61 15.9266 1369.09 14.8114 1369.09 13.3626C1369.09 11.9138 1368.61 10.8081 1367.66 10.0455C1366.7 9.26392 1365.32 8.87311 1363.51 8.87311H1358.65V17.8807H1363.51Z" fill="#2B2B2E"/>
<path d="M1376.16 11.2465H1378.91V26.4021H1376.16V11.2465ZM1377.54 8.3298C1377 8.3298 1376.56 8.15823 1376.19 7.81508C1375.85 7.47194 1375.68 7.05254 1375.68 6.55688C1375.68 6.06123 1375.85 5.64183 1376.19 5.29868C1376.56 4.93648 1377 4.75537 1377.54 4.75537C1378.07 4.75537 1378.51 4.92694 1378.85 5.27009C1379.21 5.59417 1379.4 6.00404 1379.4 6.49969C1379.4 7.01441 1379.21 7.45287 1378.85 7.81508C1378.51 8.15823 1378.07 8.3298 1377.54 8.3298Z" fill="#2B2B2E"/>
<path d="M1398.64 11.2465V24.3432C1398.64 26.9931 1397.99 28.9471 1396.67 30.2053C1395.36 31.4826 1393.39 32.1212 1390.78 32.1212C1389.35 32.1212 1387.99 31.921 1386.69 31.5207C1385.4 31.1394 1384.35 30.5866 1383.55 29.8621L1384.86 27.7461C1385.57 28.3561 1386.44 28.8327 1387.47 29.1759C1388.51 29.5381 1389.59 29.7192 1390.7 29.7192C1392.47 29.7192 1393.78 29.2998 1394.61 28.461C1395.47 27.6222 1395.9 26.3449 1395.9 24.6292V23.4282C1395.25 24.2098 1394.45 24.8008 1393.5 25.2011C1392.56 25.5824 1391.54 25.773 1390.44 25.773C1388.99 25.773 1387.68 25.468 1386.49 24.8579C1385.33 24.2288 1384.42 23.3615 1383.75 22.2558C1383.08 21.131 1382.75 19.8538 1382.75 18.424C1382.75 16.9942 1383.08 15.7265 1383.75 14.6208C1384.42 13.496 1385.33 12.6286 1386.49 12.0186C1387.68 11.4086 1388.99 11.1036 1390.44 11.1036C1391.58 11.1036 1392.64 11.3133 1393.61 11.7327C1394.6 12.1521 1395.41 12.7716 1396.04 13.5914V11.2465H1398.64ZM1390.75 23.371C1391.75 23.371 1392.63 23.1613 1393.41 22.7419C1394.21 22.3225 1394.83 21.741 1395.27 20.9976C1395.73 20.235 1395.96 19.3772 1395.96 18.424C1395.96 16.9561 1395.47 15.7741 1394.5 14.8781C1393.53 13.9631 1392.28 13.5056 1390.75 13.5056C1389.21 13.5056 1387.95 13.9631 1386.98 14.8781C1386.01 15.7741 1385.52 16.9561 1385.52 18.424C1385.52 19.3772 1385.74 20.235 1386.18 20.9976C1386.64 21.741 1387.26 22.3225 1388.04 22.7419C1388.84 23.1613 1389.74 23.371 1390.75 23.371Z" fill="#2B2B2E"/>
<path d="M1411.98 11.1036C1413.91 11.1036 1415.43 11.6659 1416.55 12.7907C1417.7 13.8964 1418.27 15.5263 1418.27 17.6805V26.4021H1415.53V17.9951C1415.53 16.5272 1415.17 15.4215 1414.47 14.678C1413.76 13.9345 1412.75 13.5628 1411.44 13.5628C1409.95 13.5628 1408.78 14.0012 1407.92 14.8781C1407.06 15.736 1406.63 16.9751 1406.63 18.5956V26.4021H1403.89V5.1843H1406.63V13.3912C1407.21 12.6668 1407.95 12.1044 1408.86 11.7041C1409.8 11.3037 1410.84 11.1036 1411.98 11.1036Z" fill="#2B2B2E"/>
<path d="M1431.87 25.5156C1431.47 25.8588 1430.97 26.1257 1430.38 26.3163C1429.79 26.4879 1429.18 26.5737 1428.55 26.5737C1427.03 26.5737 1425.85 26.1638 1425.01 25.3441C1424.17 24.5243 1423.75 23.3519 1423.75 21.8268V13.5056H1421.18V11.2465H1423.75V7.92946H1426.49V11.2465H1430.84V13.5056H1426.49V21.7125C1426.49 22.5322 1426.69 23.1613 1427.09 23.5998C1427.51 24.0382 1428.11 24.2574 1428.87 24.2574C1429.71 24.2574 1430.42 24.0192 1431.01 23.5426L1431.87 25.5156Z" fill="#2B2B2E"/>
<path d="M1441.89 17.366H1449.58V19.7394H1441.89V17.366Z" fill="#2B2B2E"/>
<path d="M1470.84 26.6309C1468.84 26.6309 1467.03 26.1924 1465.41 25.3155C1463.8 24.4195 1462.55 23.1994 1461.63 21.6553C1460.72 20.092 1460.26 18.3382 1460.26 16.3937C1460.26 14.4492 1460.72 12.7049 1461.63 11.1607C1462.55 9.59753 1463.81 8.37746 1465.43 7.50053C1467.05 6.60454 1468.87 6.15655 1470.87 6.15655C1472.43 6.15655 1473.86 6.42344 1475.15 6.95722C1476.45 7.47194 1477.56 8.24401 1478.47 9.27345L1476.61 11.075C1475.11 9.49268 1473.23 8.70154 1470.98 8.70154C1469.49 8.70154 1468.15 9.03515 1466.95 9.70238C1465.75 10.3696 1464.81 11.2942 1464.12 12.4761C1463.45 13.639 1463.12 14.9449 1463.12 16.3937C1463.12 17.8425 1463.45 19.1579 1464.12 20.3399C1464.81 21.5028 1465.75 22.4178 1466.95 23.085C1468.15 23.7523 1469.49 24.0859 1470.98 24.0859C1473.21 24.0859 1475.09 23.2852 1476.61 21.6839L1478.47 23.4854C1477.56 24.5148 1476.44 25.2964 1475.13 25.8302C1473.83 26.364 1472.4 26.6309 1470.84 26.6309Z" fill="#2B2B2E"/>
<path d="M1488 26.5737C1486.49 26.5737 1485.14 26.2401 1483.94 25.5728C1482.74 24.9056 1481.79 23.9906 1481.11 22.8277C1480.44 21.6457 1480.11 20.3113 1480.11 18.8243C1480.11 17.3374 1480.44 16.0124 1481.11 14.8496C1481.79 13.6676 1482.74 12.7526 1483.94 12.1044C1485.14 11.4372 1486.49 11.1036 1488 11.1036C1489.5 11.1036 1490.85 11.4372 1492.03 12.1044C1493.23 12.7526 1494.16 13.6676 1494.83 14.8496C1495.52 16.0124 1495.86 17.3374 1495.86 18.8243C1495.86 20.3113 1495.52 21.6457 1494.83 22.8277C1494.16 23.9906 1493.23 24.9056 1492.03 25.5728C1490.85 26.2401 1489.5 26.5737 1488 26.5737ZM1488 24.1717C1488.97 24.1717 1489.84 23.9524 1490.6 23.514C1491.38 23.0564 1491.99 22.4273 1492.43 21.6267C1492.87 20.8069 1493.09 19.8728 1493.09 18.8243C1493.09 17.7758 1492.87 16.8512 1492.43 16.0506C1491.99 15.2308 1491.38 14.6017 1490.6 14.1633C1489.84 13.7248 1488.97 13.5056 1488 13.5056C1487.03 13.5056 1486.15 13.7248 1485.37 14.1633C1484.6 14.6017 1483.99 15.2308 1483.54 16.0506C1483.1 16.8512 1482.88 17.7758 1482.88 18.8243C1482.88 19.8728 1483.1 20.8069 1483.54 21.6267C1483.99 22.4273 1484.6 23.0564 1485.37 23.514C1486.15 23.9524 1487.03 24.1717 1488 24.1717Z" fill="#2B2B2E"/>
<path d="M1507.75 11.1036C1509.67 11.1036 1511.2 11.6659 1512.32 12.7907C1513.46 13.8964 1514.04 15.5263 1514.04 17.6805V26.4021H1511.29V17.9951C1511.29 16.5272 1510.94 15.4215 1510.23 14.678C1509.53 13.9345 1508.52 13.5628 1507.2 13.5628C1505.72 13.5628 1504.54 14.0012 1503.69 14.8781C1502.83 15.736 1502.4 16.9751 1502.4 18.5956V26.4021H1499.66V11.2465H1502.29V13.5342C1502.84 12.7526 1503.58 12.1521 1504.52 11.7327C1505.47 11.3133 1506.55 11.1036 1507.75 11.1036Z" fill="#2B2B2E"/>
<path d="M1523.46 26.5737C1522.22 26.5737 1521.03 26.4116 1519.89 26.0876C1518.74 25.7444 1517.85 25.3155 1517.2 24.8008L1518.34 22.6275C1519.01 23.1041 1519.82 23.4854 1520.77 23.7713C1521.73 24.0573 1522.69 24.2003 1523.66 24.2003C1526.06 24.2003 1527.26 23.514 1527.26 22.1414C1527.26 21.6839 1527.1 21.3216 1526.78 21.0548C1526.45 20.7879 1526.04 20.5972 1525.55 20.4829C1525.07 20.3494 1524.39 20.2064 1523.49 20.0539C1522.27 19.8633 1521.27 19.6441 1520.49 19.3962C1519.73 19.1484 1519.07 18.729 1518.52 18.138C1517.96 17.5471 1517.69 16.7178 1517.69 15.6502C1517.69 14.2776 1518.26 13.1815 1519.4 12.3618C1520.55 11.523 1522.08 11.1036 1524.01 11.1036C1525.02 11.1036 1526.03 11.2275 1527.04 11.4753C1528.05 11.7231 1528.87 12.0567 1529.52 12.4761L1528.35 14.6494C1527.11 13.8487 1525.65 13.4484 1523.98 13.4484C1522.81 13.4484 1521.93 13.639 1521.32 14.0203C1520.71 14.4016 1520.4 14.9067 1520.4 15.5358C1520.4 16.0315 1520.57 16.4223 1520.92 16.7083C1521.26 16.9942 1521.68 17.2039 1522.18 17.3374C1522.69 17.4708 1523.4 17.6233 1524.32 17.7949C1525.54 18.0046 1526.52 18.2333 1527.26 18.4812C1528.03 18.7099 1528.67 19.1103 1529.21 19.6822C1529.74 20.2541 1530.01 21.0548 1530.01 22.0842C1530.01 23.4568 1529.42 24.5529 1528.24 25.3727C1527.07 26.1733 1525.48 26.5737 1523.46 26.5737Z" fill="#2B2B2E"/>
<path d="M1547.13 18.9101C1547.13 19.1198 1547.11 19.3962 1547.08 19.7394H1534.78C1534.95 21.0738 1535.54 22.1509 1536.53 22.9707C1537.54 23.7713 1538.79 24.1717 1540.27 24.1717C1542.08 24.1717 1543.54 23.5616 1544.65 22.3416L1546.16 24.1145C1545.48 24.9151 1544.62 25.5252 1543.59 25.9446C1542.58 26.364 1541.44 26.5737 1540.19 26.5737C1538.59 26.5737 1537.17 26.2496 1535.93 25.6014C1534.69 24.9342 1533.73 24.0096 1533.04 22.8277C1532.37 21.6457 1532.04 20.3113 1532.04 18.8243C1532.04 17.3564 1532.36 16.0315 1533.01 14.8496C1533.68 13.6676 1534.58 12.7526 1535.73 12.1044C1536.89 11.4372 1538.19 11.1036 1539.64 11.1036C1541.09 11.1036 1542.38 11.4372 1543.5 12.1044C1544.65 12.7526 1545.53 13.6676 1546.16 14.8496C1546.81 16.0315 1547.13 17.385 1547.13 18.9101ZM1539.64 13.4198C1538.33 13.4198 1537.22 13.8201 1536.33 14.6208C1535.45 15.4215 1534.94 16.47 1534.78 17.7663H1544.5C1544.35 16.489 1543.83 15.4501 1542.93 14.6494C1542.05 13.8296 1540.96 13.4198 1539.64 13.4198Z" fill="#2B2B2E"/>
<path d="M1553.58 13.7915C1554.05 12.9146 1554.76 12.2474 1555.69 11.7898C1556.63 11.3323 1557.76 11.1036 1559.09 11.1036V13.7629C1558.94 13.7439 1558.73 13.7343 1558.46 13.7343C1556.98 13.7343 1555.81 14.1823 1554.95 15.0783C1554.11 15.9552 1553.69 17.2134 1553.69 18.8529V26.4021H1550.95V11.2465H1553.58V13.7915Z" fill="#2B2B2E"/>
<path d="M1576.5 11.2465L1569.87 26.4021H1567.06L1560.43 11.2465H1563.29L1568.49 23.3996L1573.81 11.2465H1576.5Z" fill="#2B2B2E"/>
<path d="M1584.1 11.1036C1586.2 11.1036 1587.8 11.6183 1588.91 12.6477C1590.03 13.6771 1590.59 15.2118 1590.59 17.2516V26.4021H1587.99V24.4004C1587.54 25.1058 1586.88 25.6491 1586.02 26.0304C1585.18 26.3926 1584.18 26.5737 1583.02 26.5737C1581.32 26.5737 1579.96 26.1638 1578.93 25.3441C1577.92 24.5243 1577.41 23.4472 1577.41 22.1128C1577.41 20.7783 1577.9 19.7108 1578.87 18.9101C1579.84 18.0904 1581.39 17.6805 1583.5 17.6805H1587.85V17.1372C1587.85 15.9552 1587.51 15.0497 1586.82 14.4206C1586.13 13.7915 1585.12 13.477 1583.79 13.477C1582.89 13.477 1582.02 13.6295 1581.16 13.9345C1580.3 14.2205 1579.58 14.6113 1578.99 15.1069L1577.84 13.048C1578.62 12.4189 1579.56 11.9424 1580.64 11.6183C1581.73 11.2751 1582.88 11.1036 1584.1 11.1036ZM1583.48 24.4576C1584.52 24.4576 1585.43 24.2289 1586.19 23.7713C1586.95 23.2947 1587.51 22.6275 1587.85 21.7696V19.6536H1583.62C1581.29 19.6536 1580.13 20.4352 1580.13 21.9984C1580.13 22.761 1580.43 23.3615 1581.02 23.7999C1581.61 24.2384 1582.43 24.4576 1583.48 24.4576Z" fill="#2B2B2E"/>
<path d="M1604.19 25.5156C1603.79 25.8588 1603.3 26.1257 1602.71 26.3163C1602.12 26.4879 1601.51 26.5737 1600.88 26.5737C1599.35 26.5737 1598.17 26.1638 1597.33 25.3441C1596.49 24.5243 1596.07 23.3519 1596.07 21.8268V13.5056H1593.5V11.2465H1596.07V7.92946H1598.82V11.2465H1603.16V13.5056H1598.82V21.7125C1598.82 22.5322 1599.02 23.1613 1599.42 23.5998C1599.84 24.0382 1600.43 24.2574 1601.19 24.2574C1602.03 24.2574 1602.74 24.0192 1603.34 23.5426L1604.19 25.5156Z" fill="#2B2B2E"/>
<path d="M1607.51 11.2465H1610.26V26.4021H1607.51V11.2465ZM1608.88 8.3298C1608.35 8.3298 1607.9 8.15823 1607.54 7.81508C1607.2 7.47194 1607.03 7.05254 1607.03 6.55688C1607.03 6.06123 1607.2 5.64183 1607.54 5.29868C1607.9 4.93648 1608.35 4.75537 1608.88 4.75537C1609.42 4.75537 1609.86 4.92694 1610.2 5.27009C1610.56 5.59417 1610.74 6.00404 1610.74 6.49969C1610.74 7.01441 1610.56 7.45287 1610.2 7.81508C1609.86 8.15823 1609.42 8.3298 1608.88 8.3298Z" fill="#2B2B2E"/>
<path d="M1628.91 11.2465L1622.27 26.4021H1619.47L1612.84 11.2465H1615.7L1620.9 23.3996L1626.22 11.2465H1628.91Z" fill="#2B2B2E"/>
<path d="M1644.74 18.9101C1644.74 19.1198 1644.72 19.3962 1644.69 19.7394H1632.39C1632.56 21.0738 1633.15 22.1509 1634.14 22.9707C1635.15 23.7713 1636.39 24.1717 1637.88 24.1717C1639.69 24.1717 1641.15 23.5616 1642.26 22.3416L1643.77 24.1145C1643.08 24.9151 1642.23 25.5252 1641.2 25.9446C1640.19 26.364 1639.05 26.5737 1637.8 26.5737C1636.19 26.5737 1634.77 26.2496 1633.54 25.6014C1632.3 24.9342 1631.33 24.0096 1630.65 22.8277C1629.98 21.6457 1629.65 20.3113 1629.65 18.8243C1629.65 17.3564 1629.97 16.0315 1630.62 14.8496C1631.29 13.6676 1632.19 12.7526 1633.34 12.1044C1634.5 11.4372 1635.8 11.1036 1637.25 11.1036C1638.7 11.1036 1639.99 11.4372 1641.11 12.1044C1642.26 12.7526 1643.14 13.6676 1643.77 14.8496C1644.42 16.0315 1644.74 17.385 1644.74 18.9101ZM1637.25 13.4198C1635.94 13.4198 1634.83 13.8201 1633.94 14.6208C1633.06 15.4215 1632.54 16.47 1632.39 17.7663H1642.11C1641.96 16.489 1641.44 15.4501 1640.54 14.6494C1639.66 13.8296 1638.57 13.4198 1637.25 13.4198Z" fill="#2B2B2E"/>
<path d="M1702.47 420.264L1709.86 420.247L1703.77 416.621V415.337L1709.7 411.729L1702.47 411.729L1702.47 409.055L1714.79 409.055L1714.79 411.413L1707.14 416.023L1714.79 420.563V422.904L1702.47 422.939L1702.47 420.264Z" fill="#2B2B2E"/>
<path d="M1702.26 431.827C1702.26 430.548 1702.54 429.393 1703.09 428.36C1703.64 427.34 1704.4 426.536 1705.36 425.949C1706.33 425.375 1707.42 425.087 1708.63 425.087C1709.84 425.087 1710.92 425.375 1711.89 425.949C1712.86 426.536 1713.62 427.34 1714.17 428.36C1714.73 429.393 1715 430.548 1715 431.827C1715 433.106 1714.73 434.255 1714.17 435.276C1713.62 436.297 1712.86 437.1 1711.89 437.687C1710.92 438.273 1709.84 438.567 1708.63 438.567C1707.42 438.567 1706.33 438.273 1705.36 437.687C1704.4 437.1 1703.64 436.297 1703.09 435.276C1702.54 434.255 1702.26 433.106 1702.26 431.827ZM1704.69 431.827C1704.69 432.554 1704.85 433.211 1705.18 433.798C1705.52 434.384 1705.99 434.842 1706.59 435.17C1707.19 435.511 1707.87 435.681 1708.63 435.681C1709.39 435.681 1710.07 435.511 1710.67 435.17C1711.27 434.842 1711.73 434.384 1712.06 433.798C1712.4 433.211 1712.57 432.554 1712.57 431.827C1712.57 431.099 1712.4 430.443 1712.06 429.856C1711.73 429.269 1711.27 428.806 1710.67 428.466C1710.07 428.137 1709.39 427.973 1708.63 427.973C1707.87 427.973 1707.19 428.137 1706.59 428.466C1705.99 428.806 1705.52 429.269 1705.18 429.856C1704.85 430.443 1704.69 431.099 1704.69 431.827Z" fill="#2B2B2E"/>
<path d="M1714.79 440.709V446.305C1714.79 447.642 1714.53 448.821 1714.02 449.842C1713.51 450.874 1712.8 451.672 1711.87 452.235C1710.94 452.81 1709.86 453.097 1708.63 453.097C1707.4 453.097 1706.32 452.81 1705.39 452.235C1704.47 451.672 1703.75 450.874 1703.23 449.842C1702.72 448.821 1702.47 447.642 1702.47 446.305L1702.47 440.709H1714.79ZM1704.81 446.164C1704.81 447.396 1705.15 448.376 1705.83 449.103C1706.53 449.842 1707.46 450.211 1708.63 450.211C1709.8 450.211 1710.73 449.842 1711.41 449.103C1712.1 448.376 1712.45 447.396 1712.45 446.164V443.56H1704.81V446.164Z" fill="#2B2B2E"/>
<path d="M1704.76 464.785H1702.47L1702.47 455.247H1714.79L1714.79 464.556H1712.5V458.08H1709.83V463.8H1707.61V458.08H1704.76L1704.76 464.785Z" fill="#2B2B2E"/>
<path d="M1702.47 474.902L1705.9 472.526V469.904H1702.47L1702.47 467.053H1714.79V472.385C1714.79 473.476 1714.61 474.421 1714.24 475.218C1713.88 476.028 1713.37 476.65 1712.7 477.084C1712.03 477.518 1711.24 477.735 1710.32 477.735C1709.41 477.735 1708.61 477.512 1707.95 477.066C1707.29 476.632 1706.78 476.01 1706.43 475.201L1702.47 477.964L1702.47 474.902ZM1710.32 474.849C1711.01 474.849 1711.54 474.626 1711.9 474.18C1712.28 473.734 1712.47 473.083 1712.47 472.227V469.904H1708.17V472.227C1708.17 473.083 1708.36 473.734 1708.74 474.18C1709.11 474.626 1709.64 474.849 1710.32 474.849Z" fill="#2B2B2E"/>
<path d="M1705.11 488.106L1705.11 482.387L1702.47 481.296L1702.47 478.374L1714.79 483.865V486.68L1702.47 492.188L1702.47 489.197L1705.11 488.106ZM1707.28 487.208L1711.99 485.255L1707.28 483.302V487.208Z" fill="#2B2B2E"/>
<path d="M1712.47 495.399V491.457H1714.79V502.192H1712.47V498.25H1702.47L1702.47 495.399H1712.47Z" fill="#2B2B2E"/>
<path d="M1704.76 513.263H1702.47L1702.47 503.726H1714.79L1714.79 513.034H1712.5V506.559H1709.83L1709.83 512.278H1707.61L1707.61 506.559H1704.76L1704.76 513.263Z" fill="#2B2B2E"/>
<path d="M1702.26 688.014C1702.26 686.758 1702.53 685.62 1703.07 684.6C1703.62 683.591 1704.38 682.793 1705.34 682.207C1706.31 681.632 1707.41 681.344 1708.63 681.344C1709.85 681.344 1710.94 681.632 1711.9 682.207C1712.88 682.793 1713.63 683.591 1714.17 684.6C1714.73 685.62 1715 686.764 1715 688.031C1715 689.099 1714.81 690.061 1714.44 690.917C1714.06 691.785 1713.52 692.513 1712.82 693.099L1711.13 691.269C1712.09 690.436 1712.57 689.404 1712.57 688.172C1712.57 687.409 1712.4 686.729 1712.06 686.131C1711.73 685.532 1711.27 685.063 1710.67 684.723C1710.07 684.394 1709.39 684.23 1708.63 684.23C1707.87 684.23 1707.19 684.394 1706.59 684.723C1705.99 685.063 1705.52 685.532 1705.18 686.131C1704.85 686.729 1704.69 687.409 1704.69 688.172C1704.69 689.404 1705.18 690.436 1706.15 691.269L1704.46 693.099C1703.75 692.513 1703.2 691.785 1702.82 690.917C1702.45 690.049 1702.26 689.081 1702.26 688.014Z" fill="#2B2B2E"/>
<path d="M1704.76 704.562H1702.47L1702.47 695.024L1714.79 695.024V704.333H1712.5V697.857H1709.83L1709.83 703.576H1707.61L1707.61 697.857L1704.76 697.857L1704.76 704.562Z" fill="#2B2B2E"/>
<path d="M1714.79 718.128H1702.47L1702.47 715.787L1709.95 709.646H1702.47L1702.47 706.83H1714.79L1714.79 709.188L1707.31 715.312H1714.79V718.128Z" fill="#2B2B2E"/>
<path d="M1712.47 723.594V719.652H1714.79V730.386H1712.47V726.444H1702.47L1702.47 723.594L1712.47 723.594Z" fill="#2B2B2E"/>
<path d="M1702.47 739.768L1705.9 737.393L1705.9 734.771H1702.47L1702.47 731.92H1714.79L1714.79 737.252C1714.79 738.343 1714.61 739.287 1714.24 740.085C1713.88 740.894 1713.37 741.516 1712.7 741.95C1712.03 742.384 1711.24 742.601 1710.32 742.601C1709.41 742.601 1708.61 742.378 1707.95 741.933C1707.29 741.499 1706.78 740.877 1706.43 740.067L1702.47 742.83L1702.47 739.768ZM1710.32 739.715C1711.01 739.715 1711.54 739.493 1711.9 739.047C1712.28 738.601 1712.47 737.95 1712.47 737.093V734.771H1708.17V737.093C1708.17 737.95 1708.36 738.601 1708.74 739.047C1709.11 739.493 1709.64 739.715 1710.32 739.715Z" fill="#2B2B2E"/>
<path d="M1714.79 744.86V747.711H1702.47L1702.47 744.86H1714.79Z" fill="#2B2B2E"/>
<path d="M1702.26 754.681C1702.26 753.708 1702.39 752.763 1702.65 751.848C1702.92 750.945 1703.26 750.218 1703.69 749.666L1705.83 750.634C1705.45 751.162 1705.14 751.79 1704.9 752.517C1704.67 753.244 1704.55 753.972 1704.55 754.699C1704.55 755.509 1704.67 756.107 1704.9 756.494C1705.15 756.881 1705.47 757.075 1705.87 757.075C1706.16 757.075 1706.4 756.957 1706.59 756.723C1706.79 756.5 1706.95 756.207 1707.07 755.843C1707.18 755.491 1707.31 755.01 1707.45 754.4C1707.68 753.461 1707.9 752.693 1708.12 752.095C1708.34 751.496 1708.7 750.98 1709.19 750.546C1709.69 750.124 1710.34 749.913 1711.17 749.913C1711.88 749.913 1712.53 750.106 1713.1 750.493C1713.69 750.88 1714.15 751.461 1714.49 752.235C1714.83 753.021 1715 753.978 1715 755.104C1715 755.89 1714.91 756.658 1714.72 757.409C1714.53 758.16 1714.26 758.817 1713.91 759.38L1711.75 758.5C1712.39 757.362 1712.71 756.224 1712.71 755.086C1712.71 754.288 1712.58 753.696 1712.33 753.309C1712.07 752.933 1711.73 752.746 1711.31 752.746C1710.88 752.746 1710.57 752.963 1710.36 753.397C1710.16 753.843 1709.96 754.517 1709.76 755.421C1709.53 756.359 1709.31 757.127 1709.09 757.726C1708.87 758.324 1708.51 758.834 1708.03 759.257C1707.55 759.691 1706.9 759.908 1706.08 759.908C1705.38 759.908 1704.73 759.708 1704.14 759.31C1703.57 758.922 1703.11 758.336 1702.77 757.55C1702.43 756.764 1702.26 755.808 1702.26 754.681Z" fill="#2B2B2E"/>
<path d="M1712.47 764.235V760.294H1714.79V771.028H1712.47V767.086H1702.47L1702.47 764.235H1712.47Z" fill="#2B2B2E"/>
<rect width="6.59894" height="259.558" rx="3.29947" transform="matrix(-1 0 0 1 44.2354 68.1929)" fill="#5282DE"/>
<rect width="6.59894" height="259.558" rx="3.29947" transform="matrix(-1 0 0 1 44.2354 68.1929)" fill="black" fill-opacity="0.2"/>
<rect width="6.59894" height="259.558" rx="3.29947" transform="matrix(-1 0 0 1 44.2354 332.139)" fill="#B7D0FF"/>
<rect width="6.59894" height="259.558" rx="3.29947" transform="matrix(-1 0 0 1 44.2354 596.102)" fill="#B1B1B1"/>
<rect width="6.59892" height="523.423" rx="3.29946" transform="matrix(4.37037e-08 -1 -1 -4.37191e-08 587.451 890.858)" fill="#5282DE"/>
<rect width="6.59892" height="523.423" rx="3.29946" transform="matrix(4.37037e-08 -1 -1 -4.37191e-08 587.451 890.858)" fill="black" fill-opacity="0.2"/>
<rect width="6.59892" height="523.423" rx="3.29946" transform="matrix(4.37037e-08 -1 -1 -4.37191e-08 1643.09 890.858)" fill="#E84C52"/>
<rect width="6.59893" height="127.557" rx="3.29947" transform="matrix(4.37037e-08 -1 -1 -4.37191e-08 719.407 890.858)" fill="#B7D0FF"/>
<rect width="6.59893" height="127.557" rx="3.29947" transform="matrix(4.37037e-08 -1 -1 -4.37191e-08 1115.27 890.858)" fill="#FFBFC2"/>
<rect width="6.59893" height="259.512" rx="3.29946" transform="matrix(4.37037e-08 -1 -1 -4.37191e-08 983.315 890.858)" fill="#B1B1B1"/>
<path d="M270.311 915.933L275.905 915.933C277.243 915.933 278.421 916.191 279.442 916.708C280.474 917.212 281.272 917.928 281.835 918.854C282.409 919.781 282.697 920.861 282.697 922.092C282.697 923.324 282.409 924.403 281.835 925.33C281.272 926.257 280.474 926.978 279.442 927.495C278.421 927.999 277.243 928.251 275.905 928.251H270.311L270.311 915.933ZM275.765 925.911C276.996 925.911 277.976 925.571 278.703 924.89C279.442 924.198 279.811 923.265 279.811 922.092C279.811 920.919 279.442 919.992 278.703 919.312C277.976 918.62 276.996 918.274 275.765 918.274L273.161 918.274L273.161 925.911H275.765Z" fill="#2B2B2E"/>
<path d="M294.382 925.964V928.251L284.846 928.251L284.846 915.933L294.154 915.933L294.154 918.221L287.679 918.221V920.896L293.397 920.896V923.113L287.679 923.113V925.964H294.382Z" fill="#2B2B2E"/>
<path d="M296.65 915.933L302.245 915.933C303.582 915.933 304.761 916.191 305.781 916.708C306.814 917.212 307.611 917.928 308.174 918.854C308.749 919.781 309.036 920.861 309.036 922.092C309.036 923.324 308.749 924.403 308.174 925.33C307.611 926.257 306.814 926.978 305.781 927.495C304.761 927.999 303.582 928.251 302.245 928.251H296.65L296.65 915.933ZM302.104 925.911C303.336 925.911 304.315 925.571 305.042 924.89C305.781 924.198 306.151 923.265 306.151 922.092C306.151 920.919 305.781 919.992 305.042 919.312C304.315 918.62 303.336 918.274 302.104 918.274L299.5 918.274V925.911L302.104 925.911Z" fill="#2B2B2E"/>
<path d="M311.186 915.933L314.036 915.933L314.036 928.251H311.186V915.933Z" fill="#2B2B2E"/>
<path d="M322.853 928.463C321.598 928.463 320.46 928.193 319.44 927.653C318.431 927.102 317.633 926.345 317.047 925.383C316.472 924.409 316.185 923.312 316.185 922.092C316.185 920.872 316.472 919.781 317.047 918.819C317.633 917.846 318.431 917.089 319.44 916.549C320.46 915.998 321.604 915.722 322.87 915.722C323.938 915.722 324.9 915.91 325.756 916.285C326.624 916.661 327.351 917.2 327.938 917.904L326.108 919.594C325.275 918.632 324.243 918.151 323.011 918.151C322.249 918.151 321.568 918.321 320.97 918.661C320.372 918.989 319.903 919.453 319.563 920.051C319.234 920.649 319.07 921.33 319.07 922.092C319.07 922.855 319.234 923.535 319.563 924.134C319.903 924.732 320.372 925.201 320.97 925.541C321.568 925.87 322.249 926.034 323.011 926.034C324.243 926.034 325.275 925.547 326.108 924.574L327.938 926.263C327.351 926.978 326.624 927.524 325.756 927.899C324.888 928.275 323.92 928.463 322.853 928.463Z" fill="#2B2B2E"/>
<path d="M337.733 925.612L332.015 925.612L330.924 928.251L328.003 928.251L333.492 915.933L336.308 915.933L341.814 928.251L338.823 928.251L337.733 925.612ZM336.835 923.447L334.882 918.731L332.929 923.447H336.835Z" fill="#2B2B2E"/>
<path d="M345.025 918.256L341.084 918.256V915.933L351.816 915.933V918.256L347.875 918.256V928.251H345.025V918.256Z" fill="#2B2B2E"/>
<path d="M362.886 925.964V928.251H353.35V915.933L362.657 915.933V918.221L356.182 918.221V920.896L361.9 920.896V923.113L356.182 923.113V925.964H362.886Z" fill="#2B2B2E"/>
<path d="M365.154 915.933L370.748 915.933C372.086 915.933 373.264 916.191 374.285 916.708C375.317 917.212 376.115 917.928 376.678 918.854C377.252 919.781 377.54 920.861 377.54 922.092C377.54 923.324 377.252 924.403 376.678 925.33C376.115 926.257 375.317 926.979 374.285 927.495C373.264 927.999 372.086 928.251 370.748 928.251H365.154V915.933ZM370.608 925.911C371.839 925.911 372.819 925.571 373.546 924.89C374.285 924.198 374.654 923.265 374.654 922.092C374.654 920.919 374.285 919.992 373.546 919.312C372.819 918.62 371.839 918.274 370.608 918.274L368.004 918.274V925.911H370.608Z" fill="#2B2B2E"/>
<path d="M1328.15 915.933L1333.75 915.933C1335.08 915.933 1336.26 916.191 1337.28 916.708C1338.31 917.212 1339.11 917.928 1339.67 918.854C1340.25 919.781 1340.54 920.861 1340.54 922.092C1340.54 923.324 1340.25 924.403 1339.67 925.33C1339.11 926.257 1338.31 926.978 1337.28 927.495C1336.26 927.999 1335.08 928.251 1333.75 928.251H1328.15L1328.15 915.933ZM1333.61 925.911C1334.84 925.911 1335.82 925.571 1336.54 924.89C1337.28 924.198 1337.65 923.265 1337.65 922.092C1337.65 920.919 1337.28 919.992 1336.54 919.312C1335.82 918.62 1334.84 918.274 1333.61 918.274L1331 918.274L1331 925.911H1333.61Z" fill="#2B2B2E"/>
<path d="M1352.22 925.964V928.251L1342.69 928.251L1342.69 915.933L1351.99 915.933L1351.99 918.221L1345.52 918.221V920.896L1351.24 920.896V923.113L1345.52 923.113V925.964H1352.22Z" fill="#2B2B2E"/>
<path d="M1354.49 915.933L1360.09 915.933C1361.42 915.933 1362.6 916.191 1363.62 916.708C1364.65 917.212 1365.45 917.928 1366.01 918.854C1366.59 919.781 1366.88 920.861 1366.88 922.092C1366.88 923.324 1366.59 924.403 1366.01 925.33C1365.45 926.257 1364.65 926.978 1363.62 927.495C1362.6 927.999 1361.42 928.251 1360.09 928.251H1354.49L1354.49 915.933ZM1359.94 925.911C1361.18 925.911 1362.16 925.571 1362.88 924.89C1363.62 924.198 1363.99 923.265 1363.99 922.092C1363.99 920.919 1363.62 919.992 1362.88 919.312C1362.16 918.62 1361.18 918.274 1359.94 918.274L1357.34 918.274V925.911L1359.94 925.911Z" fill="#2B2B2E"/>
<path d="M1369.03 915.933L1371.88 915.933L1371.88 928.251H1369.03V915.933Z" fill="#2B2B2E"/>
<path d="M1380.69 928.463C1379.44 928.463 1378.3 928.193 1377.28 927.653C1376.27 927.102 1375.47 926.345 1374.89 925.383C1374.31 924.409 1374.03 923.312 1374.03 922.092C1374.03 920.872 1374.31 919.781 1374.89 918.819C1375.47 917.846 1376.27 917.089 1377.28 916.549C1378.3 915.998 1379.44 915.722 1380.71 915.722C1381.78 915.722 1382.74 915.91 1383.6 916.285C1384.46 916.661 1385.19 917.2 1385.78 917.904L1383.95 919.594C1383.12 918.632 1382.08 918.151 1380.85 918.151C1380.09 918.151 1379.41 918.321 1378.81 918.661C1378.21 918.989 1377.74 919.453 1377.4 920.051C1377.07 920.649 1376.91 921.33 1376.91 922.092C1376.91 922.855 1377.07 923.535 1377.4 924.134C1377.74 924.732 1378.21 925.201 1378.81 925.541C1379.41 925.87 1380.09 926.034 1380.85 926.034C1382.08 926.034 1383.12 925.547 1383.95 924.574L1385.78 926.263C1385.19 926.978 1384.46 927.524 1383.6 927.899C1382.73 928.275 1381.76 928.463 1380.69 928.463Z" fill="#2B2B2E"/>
<path d="M1395.57 925.612L1389.85 925.612L1388.76 928.251L1385.84 928.251L1391.33 915.933L1394.15 915.933L1399.65 928.251L1396.66 928.251L1395.57 925.612ZM1394.68 923.447L1392.72 918.731L1390.77 923.447H1394.68Z" fill="#2B2B2E"/>
<path d="M1402.87 918.256L1398.92 918.256V915.933L1409.66 915.933V918.256L1405.72 918.256V928.251H1402.87V918.256Z" fill="#2B2B2E"/>
<path d="M1420.73 925.964V928.251H1411.19V915.933L1420.5 915.933V918.221L1414.02 918.221V920.896L1419.74 920.896V923.113L1414.02 923.113V925.964H1420.73Z" fill="#2B2B2E"/>
<path d="M1422.99 915.933L1428.59 915.933C1429.93 915.933 1431.1 916.191 1432.13 916.708C1433.16 917.212 1433.95 917.928 1434.52 918.854C1435.09 919.781 1435.38 920.861 1435.38 922.092C1435.38 923.324 1435.09 924.403 1434.52 925.33C1433.95 926.257 1433.16 926.979 1432.13 927.495C1431.1 927.999 1429.93 928.251 1428.59 928.251H1422.99V915.933ZM1428.45 925.911C1429.68 925.911 1430.66 925.571 1431.39 924.89C1432.13 924.198 1432.49 923.265 1432.49 922.092C1432.49 920.919 1432.13 919.992 1431.39 919.312C1430.66 918.62 1429.68 918.274 1428.45 918.274L1425.84 918.274V925.911H1428.45Z" fill="#2B2B2E"/>
<path d="M594.943 928.463C593.664 928.463 592.509 928.187 591.477 927.635C590.456 927.084 589.653 926.327 589.066 925.365C588.491 924.392 588.204 923.301 588.204 922.092C588.204 920.884 588.491 919.799 589.066 918.837C589.653 917.863 590.456 917.101 591.477 916.549C592.509 915.998 593.664 915.722 594.943 915.722C596.221 915.722 597.371 915.998 598.391 916.549C599.412 917.101 600.215 917.863 600.801 918.837C601.388 919.799 601.681 920.884 601.681 922.092C601.681 923.301 601.388 924.392 600.801 925.365C600.215 926.327 599.412 927.084 598.391 927.635C597.371 928.187 596.221 928.463 594.943 928.463ZM594.943 926.034C595.67 926.034 596.327 925.87 596.913 925.541C597.5 925.201 597.957 924.732 598.285 924.134C598.626 923.535 598.796 922.855 598.796 922.092C598.796 921.33 598.626 920.649 598.285 920.051C597.957 919.453 597.5 918.989 596.913 918.661C596.327 918.321 595.67 918.151 594.943 918.151C594.215 918.151 593.559 918.321 592.972 918.661C592.386 918.989 591.922 919.453 591.582 920.051C591.254 920.649 591.09 921.33 591.09 922.092C591.09 922.855 591.254 923.535 591.582 924.134C591.922 924.732 592.386 925.201 592.972 925.541C593.559 925.87 594.215 926.034 594.943 926.034Z" fill="#2B2B2E"/>
<path d="M609.154 915.933C610.245 915.933 611.189 916.115 611.987 916.479C612.796 916.843 613.418 917.359 613.852 918.027C614.286 918.696 614.503 919.488 614.503 920.403C614.503 921.306 614.286 922.098 613.852 922.779C613.418 923.447 612.796 923.964 611.987 924.327C611.189 924.679 610.245 924.855 609.154 924.855H606.673V928.251H603.823L603.823 915.933L609.154 915.933ZM608.996 922.532C609.852 922.532 610.503 922.35 610.949 921.987C611.395 921.611 611.617 921.083 611.617 920.403C611.617 919.711 611.395 919.183 610.949 918.819C610.503 918.444 609.852 918.256 608.996 918.256L606.673 918.256V922.532H608.996Z" fill="#2B2B2E"/>
<path d="M626.074 925.964V928.251L616.538 928.251V915.933L625.845 915.933L625.845 918.221L619.37 918.221V920.896L625.088 920.896V923.113L619.37 923.113V925.964H626.074Z" fill="#2B2B2E"/>
<path d="M639.637 915.933V928.251H637.297L631.157 920.773V928.251H628.342L628.342 915.933L630.699 915.933L636.822 923.412V915.933L639.637 915.933Z" fill="#2B2B2E"/>
<path d="M658.741 928.251L658.723 920.861L655.099 926.949H653.815L650.208 921.019V928.251L647.533 928.251L647.533 915.933L649.891 915.933L654.501 923.588L659.04 915.933L661.38 915.933L661.415 928.251L658.741 928.251Z" fill="#2B2B2E"/>
<path d="M664.337 915.933L667.187 915.933V928.251H664.337V915.933Z" fill="#2B2B2E"/>
<path d="M681.406 915.933V928.251H679.066L672.925 920.773V928.251L670.11 928.251V915.933L672.468 915.933L678.591 923.412V915.933L681.406 915.933Z" fill="#2B2B2E"/>
<path d="M684.319 915.933L689.914 915.933C691.252 915.933 692.43 916.191 693.451 916.708C694.483 917.212 695.281 917.928 695.844 918.854C696.418 919.781 696.706 920.861 696.706 922.092C696.706 923.324 696.418 924.403 695.844 925.33C695.281 926.257 694.483 926.979 693.451 927.495C692.43 927.999 691.252 928.251 689.914 928.251L684.319 928.251V915.933ZM689.774 925.911C691.005 925.911 691.985 925.571 692.712 924.89C693.451 924.198 693.82 923.266 693.82 922.092C693.82 920.919 693.451 919.992 692.712 919.312C691.985 918.62 691.005 918.274 689.774 918.274L687.17 918.274V925.911H689.774Z" fill="#2B2B2E"/>
<path d="M708.391 925.964V928.251H698.855V915.933L708.162 915.933V918.221L701.688 918.221V920.896L707.406 920.896V923.113L701.688 923.113V925.964H708.391Z" fill="#2B2B2E"/>
<path d="M710.659 915.933L716.254 915.933C717.591 915.933 718.77 916.191 719.79 916.708C720.823 917.212 721.62 917.928 722.183 918.854C722.758 919.781 723.045 920.861 723.045 922.092C723.045 923.324 722.758 924.403 722.183 925.33C721.62 926.257 720.823 926.979 719.79 927.495C718.77 927.999 717.591 928.251 716.254 928.251H710.659V915.933ZM716.113 925.911C717.345 925.911 718.324 925.571 719.051 924.89C719.79 924.198 720.16 923.266 720.16 922.092C720.16 920.919 719.79 919.992 719.051 919.312C718.324 918.62 717.345 918.274 716.113 918.274H713.509V925.911H716.113Z" fill="#2B2B2E"/>
<path d="M990.81 928.463C989.531 928.463 988.376 928.187 987.344 927.635C986.323 927.084 985.52 926.327 984.933 925.365C984.359 924.392 984.071 923.301 984.071 922.092C984.071 920.884 984.359 919.799 984.933 918.837C985.52 917.863 986.323 917.101 987.344 916.549C988.376 915.998 989.531 915.722 990.81 915.722C992.088 915.722 993.238 915.998 994.258 916.549C995.279 917.101 996.082 917.863 996.669 918.837C997.255 919.799 997.548 920.884 997.548 922.092C997.548 923.301 997.255 924.392 996.669 925.365C996.082 926.327 995.279 927.084 994.258 927.635C993.238 928.187 992.088 928.463 990.81 928.463ZM990.81 926.034C991.537 926.034 992.194 925.87 992.78 925.541C993.367 925.201 993.824 924.732 994.153 924.134C994.493 923.535 994.663 922.855 994.663 922.092C994.663 921.33 994.493 920.649 994.153 920.051C993.824 919.453 993.367 918.989 992.78 918.661C992.194 918.321 991.537 918.151 990.81 918.151C990.083 918.151 989.426 918.321 988.839 918.661C988.253 918.989 987.79 919.453 987.449 920.051C987.121 920.649 986.957 921.33 986.957 922.092C986.957 922.855 987.121 923.535 987.449 924.134C987.79 924.732 988.253 925.201 988.839 925.541C989.426 925.87 990.083 926.034 990.81 926.034Z" fill="#2B2B2E"/>
<path d="M1005.02 915.933C1006.11 915.933 1007.06 916.115 1007.85 916.479C1008.66 916.843 1009.29 917.359 1009.72 918.027C1010.15 918.696 1010.37 919.488 1010.37 920.403C1010.37 921.306 1010.15 922.098 1009.72 922.779C1009.29 923.447 1008.66 923.964 1007.85 924.327C1007.06 924.679 1006.11 924.855 1005.02 924.855H1002.54V928.251H999.69L999.69 915.933L1005.02 915.933ZM1004.86 922.532C1005.72 922.532 1006.37 922.35 1006.82 921.987C1007.26 921.611 1007.48 921.083 1007.48 920.403C1007.48 919.711 1007.26 919.183 1006.82 918.819C1006.37 918.444 1005.72 918.256 1004.86 918.256L1002.54 918.256V922.532H1004.86Z" fill="#2B2B2E"/>
<path d="M1021.94 925.964V928.251L1012.4 928.251V915.933L1021.71 915.933L1021.71 918.221L1015.24 918.221V920.896L1020.96 920.896V923.113L1015.24 923.113V925.964H1021.94Z" fill="#2B2B2E"/>
<path d="M1035.5 915.933V928.251H1033.16L1027.02 920.773V928.251H1024.21L1024.21 915.933L1026.57 915.933L1032.69 923.412V915.933L1035.5 915.933Z" fill="#2B2B2E"/>
<path d="M1054.61 928.251L1054.59 920.861L1050.97 926.949H1049.68L1046.07 921.019V928.251L1043.4 928.251L1043.4 915.933L1045.76 915.933L1050.37 923.588L1054.91 915.933L1057.25 915.933L1057.28 928.251L1054.61 928.251Z" fill="#2B2B2E"/>
<path d="M1060.2 915.933L1063.05 915.933V928.251H1060.2V915.933Z" fill="#2B2B2E"/>
<path d="M1077.27 915.933V928.251H1074.93L1068.79 920.773V928.251L1065.98 928.251V915.933L1068.34 915.933L1074.46 923.412V915.933L1077.27 915.933Z" fill="#2B2B2E"/>
<path d="M1080.19 915.933L1085.78 915.933C1087.12 915.933 1088.3 916.191 1089.32 916.708C1090.35 917.212 1091.15 917.928 1091.71 918.854C1092.29 919.781 1092.57 920.861 1092.57 922.092C1092.57 923.324 1092.29 924.403 1091.71 925.33C1091.15 926.257 1090.35 926.979 1089.32 927.495C1088.3 927.999 1087.12 928.251 1085.78 928.251L1080.19 928.251V915.933ZM1085.64 925.911C1086.87 925.911 1087.85 925.571 1088.58 924.89C1089.32 924.198 1089.69 923.266 1089.69 922.092C1089.69 920.919 1089.32 919.992 1088.58 919.312C1087.85 918.62 1086.87 918.274 1085.64 918.274L1083.04 918.274V925.911H1085.64Z" fill="#2B2B2E"/>
<path d="M1104.26 925.964V928.251H1094.72V915.933L1104.03 915.933V918.221L1097.56 918.221V920.896L1103.27 920.896V923.113L1097.56 923.113V925.964H1104.26Z" fill="#2B2B2E"/>
<path d="M1106.53 915.933L1112.12 915.933C1113.46 915.933 1114.64 916.191 1115.66 916.708C1116.69 917.212 1117.49 917.928 1118.05 918.854C1118.63 919.781 1118.91 920.861 1118.91 922.092C1118.91 923.324 1118.63 924.403 1118.05 925.33C1117.49 926.257 1116.69 926.979 1115.66 927.495C1114.64 927.999 1113.46 928.251 1112.12 928.251H1106.53V915.933ZM1111.98 925.911C1113.21 925.911 1114.19 925.571 1114.92 924.89C1115.66 924.198 1116.03 923.266 1116.03 922.092C1116.03 920.919 1115.66 919.992 1114.92 919.312C1114.19 918.62 1113.21 918.274 1111.98 918.274H1109.38V925.911H1111.98Z" fill="#2B2B2E"/>
<path d="M785.682 915.937L788.532 915.937L788.532 928.255H785.682L785.682 915.937Z" fill="#2B2B2E"/>
<path d="M802.75 915.937V928.255H800.41L794.27 920.776L794.27 928.255L791.455 928.255L791.455 915.937L793.812 915.937L799.935 923.416L799.935 915.937L802.75 915.937Z" fill="#2B2B2E"/>
<path d="M805.664 915.937L811.259 915.937C812.596 915.937 813.775 916.195 814.795 916.711C815.827 917.216 816.625 917.931 817.188 918.858C817.763 919.785 818.05 920.864 818.05 922.096C818.05 923.328 817.763 924.407 817.188 925.334C816.625 926.261 815.827 926.982 814.795 927.498C813.775 928.003 812.596 928.255 811.259 928.255H805.664L805.664 915.937ZM811.118 925.915C812.35 925.915 813.329 925.574 814.056 924.894C814.795 924.202 815.165 923.269 815.165 922.096C815.165 920.923 814.795 919.996 814.056 919.316C813.329 918.624 812.35 918.277 811.118 918.277H808.514V925.915H811.118Z" fill="#2B2B2E"/>
<path d="M829.736 925.967V928.255L820.2 928.255L820.2 915.937L829.507 915.937V918.225L823.032 918.225V920.899L828.75 920.899V923.117L823.032 923.117V925.967H829.736Z" fill="#2B2B2E"/>
<path d="M837.334 915.937C838.425 915.937 839.37 916.119 840.167 916.483C840.976 916.846 841.598 917.362 842.032 918.031C842.466 918.7 842.683 919.492 842.683 920.407C842.683 921.31 842.466 922.102 842.032 922.782C841.598 923.451 840.976 923.967 840.167 924.331C839.37 924.683 838.425 924.859 837.334 924.859L834.854 924.859V928.255H832.003V915.937L837.334 915.937ZM837.176 922.536C838.032 922.536 838.683 922.354 839.129 921.99C839.575 921.615 839.798 921.087 839.798 920.407C839.798 919.715 839.575 919.187 839.129 918.823C838.683 918.448 838.032 918.26 837.176 918.26L834.854 918.26V922.536L837.176 922.536Z" fill="#2B2B2E"/>
<path d="M854.254 925.967V928.255L844.718 928.255V915.937L854.025 915.937V918.225L847.551 918.225V920.899L853.269 920.899V923.117L847.551 923.117V925.967H854.254Z" fill="#2B2B2E"/>
<path d="M867.817 915.937V928.255H865.477L859.337 920.776V928.255H856.522V915.937L858.879 915.937L865.002 923.416V915.937L867.817 915.937Z" fill="#2B2B2E"/>
<path d="M870.731 915.937L876.326 915.937C877.663 915.937 878.842 916.195 879.862 916.711C880.895 917.216 881.692 917.931 882.255 918.858C882.83 919.785 883.117 920.864 883.117 922.096C883.117 923.328 882.83 924.407 882.255 925.334C881.692 926.261 880.895 926.982 879.862 927.498C878.842 928.003 877.663 928.255 876.326 928.255L870.731 928.255V915.937ZM876.185 925.915C877.417 925.915 878.396 925.574 879.123 924.894C879.862 924.202 880.232 923.269 880.232 922.096C880.232 920.923 879.862 919.996 879.123 919.316C878.396 918.624 877.417 918.277 876.185 918.277L873.581 918.277V925.915H876.185Z" fill="#2B2B2E"/>
<path d="M894.803 925.967V928.255L885.267 928.255V915.937L894.574 915.937V918.225L888.099 918.225V920.899L893.817 920.899V923.117L888.099 923.117V925.967L894.803 925.967Z" fill="#2B2B2E"/>
<path d="M908.366 915.937V928.255H906.026L899.886 920.776V928.255L897.071 928.255V915.937L899.428 915.937L905.551 923.416V915.937L908.366 915.937Z" fill="#2B2B2E"/>
<path d="M913.831 918.26L909.89 918.26V915.937L920.622 915.937V918.26L916.681 918.26V928.255H913.831V918.26Z" fill="#2B2B2E"/>
<path d="M13.4481 501.389L6.05732 501.407L12.1459 505.032V506.316L6.21569 509.924H13.4481V512.599H1.13011L1.13011 510.241L8.78488 505.63L1.13011 501.09L1.13011 498.75L13.4481 498.714V501.389Z" fill="#2B2B2E"/>
<path d="M13.6593 489.826C13.6593 491.105 13.3836 492.261 12.8322 493.293C12.2809 494.314 11.5242 495.117 10.5622 495.704C9.58849 496.279 8.49746 496.566 7.28912 496.566C6.08078 496.566 4.99562 496.279 4.03364 495.704C3.05993 495.117 2.29739 494.314 1.74601 493.293C1.19463 492.261 0.918945 491.105 0.918945 489.826C0.918945 488.548 1.19463 487.398 1.74601 486.377C2.29739 485.357 3.05993 484.553 4.03365 483.967C4.99562 483.38 6.08078 483.087 7.28912 483.087C8.49746 483.087 9.58849 483.38 10.5622 483.967C11.5242 484.553 12.2809 485.357 12.8322 486.377C13.3836 487.398 13.6593 488.548 13.6593 489.826ZM11.2309 489.826C11.2309 489.099 11.0667 488.442 10.7382 487.856C10.398 487.269 9.9287 486.812 9.3304 486.483C8.73209 486.143 8.05167 485.973 7.28912 485.973C6.52658 485.973 5.84615 486.143 5.24785 486.483C4.64955 486.812 4.18615 487.269 3.85767 487.856C3.51746 488.442 3.34736 489.099 3.34736 489.826C3.34736 490.554 3.51746 491.211 3.85767 491.797C4.18615 492.384 4.64955 492.847 5.24785 493.188C5.84615 493.516 6.52658 493.68 7.28912 493.68C8.05167 493.68 8.73209 493.516 9.33039 493.188C9.9287 492.847 10.398 492.384 10.7382 491.797C11.0666 491.211 11.2309 490.554 11.2309 489.826Z" fill="#2B2B2E"/>
<path d="M1.13011 480.944L1.13011 475.348C1.13011 474.011 1.3882 472.832 1.90439 471.811C2.40884 470.779 3.12446 469.981 4.05124 469.418C4.97803 468.843 6.05732 468.556 7.28912 468.556C8.52093 468.556 9.60022 468.843 10.527 469.418C11.4538 469.981 12.1753 470.779 12.6915 471.811C13.1959 472.832 13.4481 474.011 13.4481 475.348L13.4481 480.944H1.13011ZM11.1077 475.489C11.1077 474.257 10.7675 473.278 10.0871 472.55C9.39492 471.811 8.46227 471.442 7.28912 471.442C6.11598 471.442 5.18919 471.811 4.50877 472.55C3.81661 473.278 3.47054 474.257 3.47054 475.489V478.094H11.1077V475.489Z" fill="#2B2B2E"/>
<path d="M11.1605 456.868H13.4481V466.406H1.13011L1.13011 457.097H3.41774L3.41774 463.573H6.09252L6.09252 457.854H8.30976L8.30976 463.573H11.1605V456.868Z" fill="#2B2B2E"/>
<path d="M13.4481 446.752L10.0167 449.127V451.749L13.4481 451.749L13.4481 454.6H1.13011L1.13011 449.268C1.13011 448.177 1.31195 447.233 1.67563 446.435C2.0393 445.626 2.55548 445.004 3.22418 444.57C3.89287 444.136 4.68474 443.919 5.5998 443.919C6.51485 443.919 7.30672 444.141 7.97541 444.587C8.63238 445.021 9.13683 445.643 9.48877 446.453L13.4481 443.69V446.752ZM5.5998 446.805C4.90764 446.805 4.37973 447.027 4.01605 447.473C3.64064 447.919 3.45294 448.57 3.45294 449.427L3.45294 451.749H7.74665V449.427C7.74665 448.57 7.55895 447.919 7.18354 447.473C6.80814 447.027 6.28022 446.805 5.5998 446.805Z" fill="#2B2B2E"/>
<path d="M10.8086 433.548V439.267L13.4481 440.358V443.279L1.13011 437.789L1.13011 434.973L13.4481 429.465L13.4481 432.457L10.8086 433.548ZM8.64411 434.445L3.92806 436.398L8.64411 438.352L8.64411 434.445Z" fill="#2B2B2E"/>
<path d="M3.45294 426.254L3.45294 430.196H1.13011L1.13011 419.462H3.45294L3.45294 423.403L13.4481 423.403V426.254H3.45294Z" fill="#2B2B2E"/>
<path d="M11.1605 408.39L13.4481 408.39V417.928H1.13011L1.13011 408.619L3.41775 408.619L3.41775 415.095L6.09252 415.095L6.09252 409.376L8.30976 409.376L8.30976 415.095H11.1605V408.39Z" fill="#2B2B2E"/>
<path d="M13.6593 763.739C13.6593 764.994 13.3895 766.132 12.8498 767.152C12.2985 768.161 11.5418 768.959 10.5798 769.546C9.60608 770.12 8.50919 770.408 7.28912 770.408C6.06905 770.408 4.97803 770.12 4.01605 769.546C3.04234 768.959 2.28566 768.161 1.74601 767.152C1.19463 766.132 0.918945 764.988 0.918945 763.721C0.918945 762.653 1.10665 761.691 1.48206 760.835C1.85746 759.967 2.39711 759.24 3.101 758.653L4.79032 760.483C3.82835 761.316 3.34736 762.348 3.34736 763.58C3.34736 764.343 3.51746 765.023 3.85767 765.621C4.18615 766.22 4.64955 766.689 5.24785 767.029C5.84615 767.358 6.52658 767.522 7.28912 767.522C8.05167 767.522 8.73209 767.358 9.33039 767.029C9.9287 766.689 10.398 766.22 10.7382 765.621C11.0666 765.023 11.2309 764.343 11.2309 763.58C11.2309 762.348 10.744 761.316 9.77032 760.483L11.4597 758.653C12.1753 759.24 12.7208 759.967 13.0962 760.835C13.4716 761.703 13.6593 762.671 13.6593 763.739Z" fill="#2B2B2E"/>
<path d="M11.1605 747.19H13.4481L13.4481 756.728H1.13011L1.13011 747.419L3.41774 747.419L3.41774 753.895H6.09252V748.176H8.30976V753.895H11.1605V747.19Z" fill="#2B2B2E"/>
<path d="M1.13011 733.625H13.4481V735.965L5.96934 742.106H13.4481V744.922H1.13011L1.13011 742.564L8.60891 736.44H1.13011L1.13011 733.625Z" fill="#2B2B2E"/>
<path d="M3.45294 728.159L3.45294 732.1H1.13011L1.13011 721.366H3.45294L3.45294 725.308H13.4481L13.4481 728.159L3.45294 728.159Z" fill="#2B2B2E"/>
<path d="M13.4481 711.984L10.0167 714.359V716.981H13.4481V719.832H1.13011L1.13011 714.5C1.13011 713.409 1.31195 712.465 1.67563 711.667C2.0393 710.858 2.55548 710.236 3.22418 709.802C3.89287 709.368 4.68474 709.151 5.5998 709.151C6.51485 709.151 7.30672 709.374 7.97541 709.819C8.63238 710.253 9.13683 710.875 9.48877 711.685L13.4481 708.922V711.984ZM5.5998 712.037C4.90764 712.037 4.37973 712.26 4.01605 712.705C3.64064 713.151 3.45294 713.802 3.45294 714.659V716.981H7.74665V714.659C7.74665 713.802 7.55895 713.151 7.18354 712.705C6.80814 712.26 6.28022 712.037 5.5998 712.037Z" fill="#2B2B2E"/>
<path d="M1.13011 706.892L1.13011 704.041L13.4481 704.041V706.892H1.13011Z" fill="#2B2B2E"/>
<path d="M13.6593 697.071C13.6593 698.044 13.5303 698.989 13.2722 699.904C13.0023 700.807 12.6563 701.534 12.2339 702.086L10.0871 701.118C10.4742 700.59 10.7851 699.962 11.0197 699.235C11.2544 698.508 11.3717 697.78 11.3717 697.053C11.3717 696.244 11.2544 695.645 11.0197 695.258C10.7734 694.871 10.4508 694.677 10.0519 694.677C9.7586 694.677 9.5181 694.795 9.3304 695.029C9.13096 695.252 8.97259 695.546 8.85527 695.909C8.73796 696.261 8.60891 696.742 8.46814 697.352C8.24524 698.291 8.02234 699.059 7.79944 699.657C7.57655 700.256 7.21874 700.772 6.72602 701.206C6.23329 701.628 5.57633 701.84 4.75513 701.84C4.03951 701.84 3.39428 701.646 2.81944 701.259C2.23287 700.872 1.76948 700.291 1.42927 699.517C1.08905 698.731 0.918948 697.775 0.918948 696.648C0.918948 695.862 1.0128 695.094 1.2005 694.343C1.38821 693.592 1.65803 692.935 2.00997 692.372L4.17443 693.252C3.5292 694.39 3.20658 695.528 3.20658 696.666C3.20658 697.464 3.33563 698.056 3.59372 698.443C3.85181 698.819 4.19202 699.006 4.61435 699.006C5.03669 699.006 5.35344 698.789 5.5646 698.355C5.76404 697.909 5.96347 697.235 6.16291 696.332C6.3858 695.393 6.6087 694.625 6.8316 694.026C7.0545 693.428 7.40644 692.918 7.88743 692.495C8.36842 692.061 9.01951 691.844 9.84072 691.844C10.5446 691.844 11.1898 692.044 11.7764 692.443C12.3512 692.83 12.8088 693.416 13.149 694.202C13.4892 694.988 13.6593 695.944 13.6593 697.071Z" fill="#2B2B2E"/>
<path d="M3.45294 687.517L3.45294 691.458H1.13011L1.13011 680.724L3.45294 680.724L3.45294 684.666L13.4481 684.666V687.517L3.45294 687.517Z" fill="#2B2B2E"/>
<rect x="59.6304" width="35.1881" height="35.1944" rx="3" fill="#5282DE"/>
<rect x="59.6304" width="35.1881" height="35.1944" rx="3" fill="black" fill-opacity="0.2"/>
<rect x="1300.01" width="35.1881" height="35.1944" rx="3" fill="#E84C52"/>
<path d="M1709.39 277.776L1709.39 284.21L1706.98 284.21L1706.98 277.776L1709.39 277.776ZM1703.89 278.005L1703.89 285.279L1701.41 285.279L1701.41 274.932L1714.77 274.932L1714.77 285.031L1712.29 285.031L1712.29 278.005L1703.89 278.005Z" fill="#2B2B2E"/>
<path d="M1701.41 265.262L1712.25 265.262L1712.25 260.985L1714.77 260.985L1714.77 272.631L1712.25 272.631L1712.25 268.355L1701.41 268.355L1701.41 265.262Z" fill="#2B2B2E"/>
<path d="M1701.41 246.15L1714.77 252.107L1714.77 255.162L1701.41 261.137L1701.41 257.892L1713.21 253.004L1713.21 254.226L1701.41 249.32L1701.41 246.15ZM1704.27 249.129L1706.62 249.95L1706.62 256.823L1704.27 257.663L1704.27 249.129Z" fill="#2B2B2E"/>
<path d="M1701.41 231.856L1714.77 231.856L1714.77 234.415L1705.15 242.299L1705.15 241.059L1714.77 241.059L1714.77 244.113L1701.41 244.113L1701.41 241.574L1711.03 233.67L1711.03 234.911L1701.41 234.911L1701.41 231.856Z" fill="#2B2B2E"/>
<path d="M1701.18 221.603C1701.18 220.547 1701.35 219.567 1701.69 218.663C1702.04 217.772 1702.52 216.996 1703.15 216.334C1703.77 215.685 1704.5 215.176 1705.34 214.807C1706.18 214.45 1707.1 214.272 1708.09 214.272C1709.08 214.272 1710 214.45 1710.84 214.807C1711.68 215.176 1712.41 215.691 1713.04 216.353C1713.66 217.015 1714.14 217.791 1714.49 218.682C1714.83 219.573 1715 220.54 1715 221.584C1715 222.64 1714.83 223.608 1714.49 224.486C1714.14 225.377 1713.66 226.147 1713.04 226.796C1712.41 227.458 1711.68 227.973 1710.84 228.342C1710.01 228.711 1709.1 228.896 1708.09 228.896C1707.1 228.896 1706.18 228.711 1705.32 228.342C1704.48 227.973 1703.75 227.458 1703.13 226.796C1702.52 226.147 1702.04 225.377 1701.69 224.486C1701.35 223.608 1701.18 222.647 1701.18 221.603ZM1703.81 221.584C1703.81 222.182 1703.92 222.729 1704.12 223.226C1704.32 223.735 1704.62 224.18 1705 224.562C1705.38 224.944 1705.83 225.237 1706.35 225.44C1706.88 225.657 1707.45 225.765 1708.09 225.765C1708.73 225.765 1709.31 225.657 1709.83 225.44C1710.35 225.237 1710.8 224.944 1711.18 224.562C1711.57 224.193 1711.86 223.754 1712.06 223.245C1712.27 222.736 1712.37 222.182 1712.37 221.584C1712.37 220.986 1712.27 220.432 1712.06 219.923C1711.86 219.427 1711.57 218.988 1711.18 218.606C1710.8 218.224 1710.35 217.925 1709.83 217.708C1709.31 217.505 1708.73 217.403 1708.09 217.403C1707.47 217.403 1706.89 217.505 1706.35 217.708C1705.83 217.925 1705.38 218.218 1705 218.587C1704.62 218.968 1704.32 219.414 1704.12 219.923C1703.92 220.432 1703.81 220.986 1703.81 221.584Z" fill="#2B2B2E"/>
<path d="M1701.41 208.21L1714.77 208.21L1714.77 211.303L1701.41 211.303L1701.41 208.21Z" fill="#2B2B2E"/>
<path d="M1701.18 199.79C1701.18 198.721 1701.32 197.696 1701.6 196.716C1701.89 195.736 1702.27 194.947 1702.73 194.349L1705.06 195.399C1704.65 195.972 1704.31 196.646 1704.04 197.423C1703.79 198.212 1703.66 199.007 1703.66 199.809C1703.66 200.42 1703.72 200.91 1703.83 201.279C1703.96 201.661 1704.13 201.941 1704.35 202.119C1704.57 202.298 1704.81 202.387 1705.09 202.387C1705.45 202.387 1705.73 202.247 1705.93 201.967C1706.15 201.687 1706.32 201.318 1706.45 200.859C1706.59 200.401 1706.72 199.892 1706.83 199.332C1706.96 198.785 1707.11 198.231 1707.29 197.671C1707.47 197.124 1707.7 196.621 1707.98 196.163C1708.26 195.705 1708.63 195.329 1709.08 195.036C1709.54 194.756 1710.13 194.616 1710.84 194.616C1711.6 194.616 1712.3 194.82 1712.92 195.227C1713.56 195.647 1714.06 196.271 1714.43 197.098C1714.81 197.938 1715 198.988 1715 200.248C1715 201.088 1714.9 201.916 1714.7 202.73C1714.51 203.545 1714.21 204.264 1713.82 204.888L1711.47 203.933C1711.83 203.309 1712.09 202.686 1712.25 202.062C1712.43 201.438 1712.52 200.827 1712.52 200.229C1712.52 199.631 1712.45 199.141 1712.31 198.759C1712.17 198.377 1711.99 198.104 1711.76 197.938C1711.54 197.773 1711.29 197.69 1710.99 197.69C1710.65 197.69 1710.37 197.83 1710.15 198.11C1709.95 198.39 1709.78 198.759 1709.66 199.217C1709.53 199.676 1709.4 200.178 1709.27 200.726C1709.15 201.286 1709 201.839 1708.84 202.387C1708.67 202.947 1708.45 203.456 1708.17 203.914C1707.89 204.372 1707.52 204.741 1707.06 205.021C1706.6 205.314 1706.02 205.46 1705.32 205.46C1704.57 205.46 1703.88 205.25 1703.26 204.83C1702.64 204.41 1702.13 203.78 1701.75 202.94C1701.37 202.113 1701.18 201.063 1701.18 199.79Z" fill="#2B2B2E"/>
<path d="M1701.18 186.984C1701.18 185.914 1701.32 184.89 1701.6 183.91C1701.89 182.93 1702.27 182.141 1702.73 181.542L1705.06 182.593C1704.65 183.165 1704.31 183.84 1704.04 184.616C1703.79 185.405 1703.66 186.201 1703.66 187.003C1703.66 187.614 1703.72 188.104 1703.83 188.473C1703.96 188.855 1704.13 189.135 1704.35 189.313C1704.57 189.491 1704.81 189.58 1705.09 189.58C1705.45 189.58 1705.73 189.44 1705.93 189.16C1706.15 188.88 1706.32 188.511 1706.45 188.053C1706.59 187.594 1706.72 187.085 1706.83 186.525C1706.96 185.978 1707.11 185.424 1707.29 184.864C1707.47 184.317 1707.7 183.814 1707.98 183.356C1708.26 182.898 1708.63 182.523 1709.08 182.23C1709.54 181.95 1710.13 181.81 1710.84 181.81C1711.6 181.81 1712.3 182.013 1712.92 182.421C1713.56 182.841 1714.06 183.464 1714.43 184.292C1714.81 185.132 1715 186.182 1715 187.442C1715 188.282 1714.9 189.109 1714.7 189.924C1714.51 190.738 1714.21 191.457 1713.82 192.081L1711.47 191.126C1711.83 190.503 1712.09 189.879 1712.25 189.255C1712.43 188.632 1712.52 188.021 1712.52 187.423C1712.52 186.824 1712.45 186.334 1712.31 185.953C1712.17 185.571 1711.99 185.297 1711.76 185.132C1711.54 184.966 1711.29 184.883 1710.99 184.883C1710.65 184.883 1710.37 185.023 1710.15 185.303C1709.95 185.584 1709.78 185.953 1709.66 186.411C1709.53 186.869 1709.4 187.372 1709.27 187.919C1709.15 188.479 1709 189.033 1708.84 189.58C1708.67 190.14 1708.45 190.649 1708.17 191.107C1707.89 191.565 1707.52 191.935 1707.06 192.215C1706.6 192.507 1706.02 192.654 1705.32 192.654C1704.57 192.654 1703.88 192.444 1703.26 192.024C1702.64 191.604 1702.13 190.974 1701.75 190.134C1701.37 189.306 1701.18 188.256 1701.18 186.984Z" fill="#2B2B2E"/>
<path d="M1701.41 165.578L1714.77 171.534L1714.77 174.589L1701.41 180.564L1701.41 177.319L1713.21 172.431L1713.21 173.653L1701.41 168.747L1701.41 165.578ZM1704.27 168.556L1706.62 169.377L1706.62 176.25L1704.27 177.09L1704.27 168.556Z" fill="#2B2B2E"/>
<path d="M1701.41 153.574L1714.77 153.574L1714.77 159.359C1714.77 160.555 1714.58 161.586 1714.18 162.452C1713.8 163.317 1713.25 163.985 1712.52 164.456C1711.79 164.927 1710.93 165.163 1709.92 165.163C1708.93 165.163 1708.07 164.927 1707.35 164.456C1706.62 163.985 1706.06 163.317 1705.67 162.452C1705.28 161.586 1705.09 160.555 1705.09 159.359L1705.09 155.292L1706.49 156.667L1701.41 156.667L1701.41 153.574ZM1706.14 156.667L1707.61 155.292L1707.61 159.187C1707.61 160.142 1707.82 160.854 1708.22 161.325C1708.63 161.796 1709.2 162.032 1709.92 162.032C1710.66 162.032 1711.23 161.796 1711.64 161.325C1712.05 160.854 1712.25 160.142 1712.25 159.187L1712.25 155.292L1713.72 156.667L1706.14 156.667Z" fill="#2B2B2E"/>
<path d="M6.53272 141.263L6.53272 134.829L8.93824 134.829L8.93824 141.263L6.53272 141.263ZM12.0311 141.034L12.0311 133.76L14.513 133.76L14.513 144.108L1.14893 144.108L1.14893 134.009L3.63082 134.009L3.63082 141.034L12.0311 141.034Z" fill="#2B2B2E"/>
<path d="M14.513 153.778L3.669 153.778L3.669 158.054L1.14893 158.054L1.14893 146.408L3.669 146.408L3.669 150.685L14.513 150.685L14.513 153.778Z" fill="#2B2B2E"/>
<path d="M14.513 172.889L1.14893 166.933L1.14893 163.878L14.513 157.902L14.513 161.148L2.71443 166.035L2.71443 164.813L14.513 169.72L14.513 172.889ZM11.6492 169.911L9.30098 169.09L9.30098 162.217L11.6492 161.377L11.6492 169.911Z" fill="#2B2B2E"/>
<path d="M14.513 187.183L1.14893 187.183L1.14893 184.625L10.771 176.74L10.771 177.981L1.14893 177.981L1.14893 174.926L14.513 174.926L14.513 177.466L4.89085 185.369L4.89085 184.128L14.513 184.128L14.513 187.183Z" fill="#2B2B2E"/>
<path d="M14.7412 197.436C14.7412 198.493 14.5693 199.473 14.2257 200.377C13.8821 201.267 13.3984 202.044 12.7747 202.706C12.1511 203.355 11.4193 203.864 10.5792 204.233C9.7392 204.589 8.82281 204.768 7.83006 204.768C6.8373 204.768 5.92091 204.589 5.08088 204.233C4.24086 203.864 3.50902 203.348 2.88537 202.687C2.26171 202.025 1.77806 201.248 1.43441 200.357C1.09077 199.467 0.918945 198.499 0.918945 197.456C0.918945 196.399 1.09077 195.432 1.43441 194.554C1.77806 193.663 2.26171 192.893 2.88537 192.244C3.50902 191.582 4.24086 191.066 5.08089 190.697C5.90818 190.328 6.82457 190.144 7.83006 190.144C8.82281 190.144 9.74557 190.328 10.5983 190.697C11.4383 191.066 12.1702 191.582 12.7938 192.244C13.4048 192.893 13.8821 193.663 14.2257 194.554C14.5693 195.432 14.7412 196.393 14.7412 197.436ZM12.1065 197.456C12.1065 196.857 12.0047 196.31 11.8011 195.814C11.5974 195.305 11.3047 194.859 10.9229 194.477C10.541 194.095 10.0892 193.803 9.56738 193.599C9.04555 193.383 8.46644 193.275 7.83006 193.275C7.19367 193.275 6.61457 193.383 6.09273 193.599C5.5709 193.803 5.11907 194.095 4.73724 194.477C4.35541 194.846 4.06267 195.285 3.85903 195.795C3.65539 196.304 3.55357 196.857 3.55357 197.456C3.55357 198.054 3.65539 198.607 3.85903 199.117C4.06267 199.613 4.35541 200.052 4.73724 200.434C5.11907 200.816 5.5709 201.115 6.09273 201.331C6.61457 201.535 7.19367 201.637 7.83006 201.637C8.45371 201.637 9.03282 201.535 9.56738 201.331C10.0892 201.115 10.541 200.822 10.9229 200.453C11.3047 200.071 11.5974 199.626 11.8011 199.117C12.0047 198.607 12.1065 198.054 12.1065 197.456Z" fill="#2B2B2E"/>
<path d="M14.513 210.83L1.14893 210.83L1.14893 207.737L14.513 207.737L14.513 210.83Z" fill="#2B2B2E"/>
<path d="M14.7412 219.249C14.7412 220.318 14.6012 221.343 14.3212 222.323C14.0284 223.303 13.653 224.092 13.1948 224.69L10.8656 223.64C11.2729 223.068 11.6102 222.393 11.8774 221.617C12.132 220.828 12.2593 220.032 12.2593 219.23C12.2593 218.619 12.202 218.129 12.0875 217.76C11.9602 217.378 11.7884 217.098 11.572 216.92C11.3556 216.742 11.1074 216.653 10.8274 216.653C10.471 216.653 10.191 216.793 9.98739 217.073C9.77102 217.353 9.5992 217.722 9.47192 218.18C9.33192 218.638 9.20464 219.148 9.09009 219.708C8.96282 220.255 8.81009 220.808 8.6319 221.369C8.45371 221.916 8.22461 222.419 7.94461 222.877C7.6646 223.335 7.2955 223.71 6.8373 224.003C6.37911 224.283 5.79363 224.423 5.08088 224.423C4.31723 224.423 3.62357 224.22 2.99991 223.812C2.36353 223.392 1.86079 222.769 1.49169 221.941C1.10986 221.101 0.918945 220.051 0.918945 218.791C0.918945 217.951 1.02077 217.124 1.22441 216.309C1.41532 215.495 1.70806 214.776 2.10262 214.152L4.45087 215.107C4.09449 215.73 3.83358 216.354 3.66812 216.977C3.48993 217.601 3.40084 218.212 3.40084 218.81C3.40084 219.408 3.47084 219.898 3.61084 220.28C3.75085 220.662 3.9354 220.936 4.16449 221.101C4.38086 221.267 4.63542 221.349 4.92815 221.349C5.2718 221.349 5.55181 221.209 5.76818 220.929C5.97182 220.649 6.13728 220.28 6.26456 219.822C6.39183 219.364 6.51911 218.861 6.64639 218.314C6.77366 217.754 6.92003 217.2 7.08549 216.653C7.25095 216.093 7.47368 215.584 7.75369 215.126C8.0337 214.667 8.4028 214.298 8.861 214.018C9.31919 213.726 9.8983 213.579 10.5983 213.579C11.3493 213.579 12.0365 213.789 12.6602 214.209C13.2839 214.629 13.7866 215.259 14.1684 216.099C14.5503 216.927 14.7412 217.977 14.7412 219.249Z" fill="#2B2B2E"/>
<path d="M14.7412 232.056C14.7412 233.125 14.6012 234.15 14.3212 235.13C14.0284 236.11 13.653 236.899 13.1948 237.497L10.8656 236.447C11.2729 235.874 11.6102 235.2 11.8774 234.423C12.132 233.634 12.2593 232.839 12.2593 232.037C12.2593 231.426 12.202 230.936 12.0875 230.567C11.9602 230.185 11.7884 229.905 11.572 229.727C11.3556 229.549 11.1074 229.46 10.8274 229.46C10.471 229.46 10.191 229.6 9.98739 229.88C9.77102 230.16 9.5992 230.529 9.47192 230.987C9.33192 231.445 9.20464 231.954 9.09009 232.514C8.96282 233.061 8.81009 233.615 8.6319 234.175C8.45371 234.722 8.22461 235.225 7.94461 235.683C7.6646 236.142 7.2955 236.517 6.8373 236.81C6.37911 237.09 5.79363 237.23 5.08088 237.23C4.31723 237.23 3.62357 237.026 2.99991 236.619C2.36353 236.199 1.86079 235.575 1.49169 234.748C1.10986 233.908 0.918945 232.858 0.918945 231.598C0.918945 230.758 1.02077 229.93 1.22441 229.116C1.41532 228.301 1.70806 227.582 2.10262 226.959L4.45087 227.913C4.09449 228.537 3.83358 229.16 3.66812 229.784C3.48993 230.408 3.40084 231.019 3.40084 231.617C3.40084 232.215 3.47084 232.705 3.61084 233.087C3.75085 233.469 3.9354 233.742 4.16449 233.908C4.38086 234.073 4.63542 234.156 4.92815 234.156C5.2718 234.156 5.55181 234.016 5.76818 233.736C5.97182 233.456 6.13728 233.087 6.26456 232.629C6.39183 232.171 6.51911 231.668 6.64639 231.121C6.77366 230.561 6.92003 230.007 7.08549 229.46C7.25095 228.9 7.47368 228.39 7.75369 227.932C8.0337 227.474 8.4028 227.105 8.861 226.825C9.31919 226.532 9.8983 226.386 10.5983 226.386C11.3493 226.386 12.0365 226.596 12.6602 227.016C13.2839 227.436 13.7866 228.066 14.1684 228.906C14.5503 229.733 14.7412 230.783 14.7412 232.056Z" fill="#2B2B2E"/>
<path d="M14.513 253.462L1.14893 247.505L1.14893 244.451L14.513 238.475L14.513 241.721L2.71443 246.608L2.71443 245.386L14.513 250.293L14.513 253.462ZM11.6492 250.484L9.30098 249.663L9.30098 242.79L11.6492 241.95L11.6492 250.484Z" fill="#2B2B2E"/>
<path d="M14.5125 265.465L1.14844 265.465L1.14844 259.681C1.14844 258.484 1.34572 257.453 1.74027 256.588C2.1221 255.722 2.67576 255.054 3.40123 254.583C4.12671 254.112 4.99219 253.877 5.99767 253.877C6.99043 253.877 7.84954 254.112 8.57502 254.583C9.3005 255.054 9.86051 255.722 10.2551 256.588C10.6369 257.453 10.8278 258.484 10.8278 259.681L10.8278 263.747L9.43414 262.373L14.5125 262.373L14.5125 265.465ZM9.77778 262.373L8.30774 263.747L8.30774 259.852C8.30774 258.898 8.1041 258.185 7.69681 257.714C7.28953 257.243 6.72315 257.008 5.99767 257.008C5.25947 257.008 4.68672 257.243 4.27944 257.714C3.87215 258.185 3.66851 258.898 3.66851 259.852L3.66851 263.747L2.19847 262.373L9.77778 262.373Z" fill="#2B2B2E"/>
</svg>
